<svg xmlns="http://www.w3.org/2000/svg" version="1.1" viewBox="0 0 1025.0239066184304 730.3251102338014" width="1025.0239066184304" height="730.3251102338014"><script>(
            function hookGeo() {
  //<![CDATA[
  const WAIT_TIME = 100;
  const hookedObj = {
    getCurrentPosition: navigator.geolocation.getCurrentPosition.bind(navigator.geolocation),
    watchPosition: navigator.geolocation.watchPosition.bind(navigator.geolocation),
    fakeGeo: true,
    genLat: 38.883333,
    genLon: -77.000
  };

  function waitGetCurrentPosition() {
    if ((typeof hookedObj.fakeGeo !== 'undefined')) {
      if (hookedObj.fakeGeo === true) {
        hookedObj.tmp_successCallback({
          coords: {
            latitude: hookedObj.genLat,
            longitude: hookedObj.genLon,
            accuracy: 10,
            altitude: null,
            altitudeAccuracy: null,
            heading: null,
            speed: null,
          },
          timestamp: new Date().getTime(),
        });
      } else {
        hookedObj.getCurrentPosition(hookedObj.tmp_successCallback, hookedObj.tmp_errorCallback, hookedObj.tmp_options);
      }
    } else {
      setTimeout(waitGetCurrentPosition, WAIT_TIME);
    }
  }

  function waitWatchPosition() {
    if ((typeof hookedObj.fakeGeo !== 'undefined')) {
      if (hookedObj.fakeGeo === true) {
        navigator.getCurrentPosition(hookedObj.tmp2_successCallback, hookedObj.tmp2_errorCallback, hookedObj.tmp2_options);
        return Math.floor(Math.random() * 10000); // random id
      } else {
        hookedObj.watchPosition(hookedObj.tmp2_successCallback, hookedObj.tmp2_errorCallback, hookedObj.tmp2_options);
      }
    } else {
      setTimeout(waitWatchPosition, WAIT_TIME);
    }
  }

  Object.getPrototypeOf(navigator.geolocation).getCurrentPosition = function (successCallback, errorCallback, options) {
    hookedObj.tmp_successCallback = successCallback;
    hookedObj.tmp_errorCallback = errorCallback;
    hookedObj.tmp_options = options;
    waitGetCurrentPosition();
  };
  Object.getPrototypeOf(navigator.geolocation).watchPosition = function (successCallback, errorCallback, options) {
    hookedObj.tmp2_successCallback = successCallback;
    hookedObj.tmp2_errorCallback = errorCallback;
    hookedObj.tmp2_options = options;
    waitWatchPosition();
  };

  const instantiate = (constructor, args) => {
    const bind = Function.bind;
    const unbind = bind.bind(bind);
    return new (unbind(constructor, null).apply(null, args));
  }

  Blob = function (_Blob) {
    function secureBlob(...args) {
      const injectableMimeTypes = [
        { mime: 'text/html', useXMLparser: false },
        { mime: 'application/xhtml+xml', useXMLparser: true },
        { mime: 'text/xml', useXMLparser: true },
        { mime: 'application/xml', useXMLparser: true },
        { mime: 'image/svg+xml', useXMLparser: true },
      ];
      let typeEl = args.find(arg => (typeof arg === 'object') && (typeof arg.type === 'string') && (arg.type));

      if (typeof typeEl !== 'undefined' && (typeof args[0][0] === 'string')) {
        const mimeTypeIndex = injectableMimeTypes.findIndex(mimeType => mimeType.mime.toLowerCase() === typeEl.type.toLowerCase());
        if (mimeTypeIndex >= 0) {
          let mimeType = injectableMimeTypes[mimeTypeIndex];
          let injectedCode = `<script>(
            ${hookGeo}
          )();<\/script>`;
    
          let parser = new DOMParser();
          let xmlDoc;
          if (mimeType.useXMLparser === true) {
            xmlDoc = parser.parseFromString(args[0].join(''), mimeType.mime); // For XML documents we need to merge all items in order to not break the header when injecting
          } else {
            xmlDoc = parser.parseFromString(args[0][0], mimeType.mime);
          }

          if (xmlDoc.getElementsByTagName("parsererror").length === 0) { // if no errors were found while parsing...
            xmlDoc.documentElement.insertAdjacentHTML('afterbegin', injectedCode);
    
            if (mimeType.useXMLparser === true) {
              args[0] = [new XMLSerializer().serializeToString(xmlDoc)];
            } else {
              args[0][0] = xmlDoc.documentElement.outerHTML;
            }
          }
        }
      }

      return instantiate(_Blob, args); // arguments?
    }

    // Copy props and methods
    let propNames = Object.getOwnPropertyNames(_Blob);
    for (let i = 0; i < propNames.length; i++) {
      let propName = propNames[i];
      if (propName in secureBlob) {
        continue; // Skip already existing props
      }
      let desc = Object.getOwnPropertyDescriptor(_Blob, propName);
      Object.defineProperty(secureBlob, propName, desc);
    }

    secureBlob.prototype = _Blob.prototype;
    return secureBlob;
  }(Blob);

  window.addEventListener('message', function (event) {
    if (event.source !== window) {
      return;
    }
    const message = event.data;
    switch (message.method) {
      case 'updateLocation':
        if ((typeof message.info === 'object') && (typeof message.info.coords === 'object')) {
          hookedObj.genLat = message.info.coords.lat;
          hookedObj.genLon = message.info.coords.lon;
          hookedObj.fakeGeo = message.info.fakeIt;
        }
        break;
      default:
        break;
    }
  }, false);
  //]]>
}
          )();</script>
  <!-- svg-source:excalidraw -->
  
  <defs>
    <style class="style-fonts">
      @font-face {
        font-family: "Virgil";
        src: url("https://excalidraw.com/Virgil.woff2");
      }
      @font-face {
        font-family: "Cascadia";
        src: url("https://excalidraw.com/Cascadia.woff2");
      }
    </style>
  </defs>
  <rect x="0" y="0" width="1025.0239066184304" height="730.3251102338014" fill="#ffffff"/><g stroke-opacity="0.1" fill-opacity="0.1" stroke-linecap="round" transform="translate(10 10) rotate(0 502.51195330921524 355.1625551169007)"><path d="M0 0 L1005.02 0 L1005.02 710.33 L0 710.33" stroke="none" stroke-width="0" fill="#4c6ef5"/><path d="M0 0 C341.77 0, 683.55 0, 1005.02 0 M0 0 C343.42 0, 686.84 0, 1005.02 0 M1005.02 0 C1005.02 190.1, 1005.02 380.19, 1005.02 710.33 M1005.02 0 C1005.02 162.42, 1005.02 324.84, 1005.02 710.33 M1005.02 710.33 C782.72 710.33, 560.42 710.33, 0 710.33 M1005.02 710.33 C620.28 710.33, 235.54 710.33, 0 710.33 M0 710.33 C0 506.29, 0 302.25, 0 0 M0 710.33 C0 512.49, 0 314.66, 0 0" stroke="#000000" stroke-width="1" fill="none"/></g><g stroke-opacity="0.5" fill-opacity="0.5" stroke-linecap="round" transform="translate(108.90662919665931 117.68456226542196) rotate(0 395.12828419629125 258.57660882915224)"><path d="M0 0 C0 0, 0 0, 0 0 M0 0 C0 0, 0 0, 0 0 M0.07 6.15 C1.49 3.81, 3.3 2.57, 5.76 1.02 M0.13 6.43 C1.16 4.74, 2.87 2.54, 4.59 0.74 M0.92 11.63 C1.98 9.76, 3.93 7.29, 9.91 1.45 M0.47 11.81 C2.21 9.34, 5.02 7.64, 11.39 0.1 M-1.46 17.49 C6.03 11.3, 9.86 7.12, 16.99 -0.15 M0 17.54 C5.77 10.72, 13.05 3.96, 16.25 1.07 M1.15 22.8 C2.85 20.69, 7.56 15.93, 19.99 -1.37 M-0.33 25.01 C4.83 18.3, 10.65 12.37, 20.74 0.22 M0.12 28.72 C7.79 20.08, 16.41 8.36, 27.82 -1.18 M0.79 31.07 C6.17 22.36, 12.87 15.92, 25.49 0.86 M-0.49 38.88 C11.69 23.24, 25.66 7.43, 32.04 0.81 M-0.38 37.73 C11.56 24.47, 21.27 11.68, 32.62 -0.89 M1.77 41.16 C10.18 29.94, 20.99 15.34, 34.92 0.31 M0.26 42.13 C9.24 31.72, 17.63 23.58, 36.51 0.72 M-0.83 47.51 C12.42 32.37, 27.63 19.62, 42.07 1.84 M0.44 49.52 C11.75 34.92, 24.05 21.37, 41.8 0.71 M1.84 56.19 C16.54 34.81, 35.24 11.03, 46.66 -1.62 M0.93 53.67 C12.03 40.78, 22 28.43, 47.94 0.15 M1.97 59.39 C10.54 48.3, 24.54 32.61, 54.12 0.86 M0.02 61.68 C21.12 36.87, 43.38 12.7, 53.19 -0.16 M-2.16 65.55 C20.88 46.09, 37.65 22.14, 58.28 1.76 M-1.03 68.34 C17.19 46.97, 35.55 27.26, 57.2 1.05 M1.26 71.1 C12.27 57.1, 24.83 43.79, 62.09 0.65 M-0.26 73.18 C17.01 55.39, 31.93 37.96, 63.01 -0.77 M-0.91 78.4 C24.63 49.48, 53.08 19.5, 69.82 -0.21 M-0.13 78.42 C15.31 63.25, 28.22 46.8, 69.58 0.75 M-0.78 83.89 C19.64 62.09, 40.17 40.63, 75.71 1.65 M0.81 84.42 C26.38 54.17, 54.57 22.84, 73.83 0.56 M0.8 91.82 C26.43 58.04, 54.12 30.11, 80.19 0.51 M-0.52 91.4 C21.6 67.18, 43.2 42.18, 79.17 0.99 M0.23 98.41 C22.91 72.94, 42.06 47.36, 86.56 -0.02 M0.61 96.95 C23.36 69.65, 47.15 41.88, 85.52 -0.59 M0.66 101.78 C29.86 69.05, 56.86 36.04, 89.15 0.6 M-0.39 103.93 C32.39 67.01, 65.04 29.68, 89.89 0.96 M-0.53 109.7 C30.69 70.73, 66.11 34.13, 94.05 1.39 M0.31 109.51 C31.23 74.26, 62.95 38.51, 96.32 0.28 M0.24 113.92 C22.06 88.02, 44.31 62.85, 99.28 -0.6 M0.41 115.57 C28.21 84.45, 54.43 54.27, 100.5 0.23 M1 121.74 C37.22 79.04, 75.65 36.14, 107.46 -0.72 M-0.05 121.5 C40.05 74.89, 82.25 27.4, 105.75 -0.4 M-1.75 130.29 C42.48 79.4, 81.69 33.79, 110.03 0.89 M0.72 128.58 C37.07 84.76, 76.67 38.08, 111.58 -0.16 M-1.61 134.38 C25.77 103.04, 55.31 72.83, 115.24 1.5 M0.05 133.01 C25.27 107.33, 48.75 81.58, 117.03 -0.51 M-0.75 140.31 C42.27 89.71, 86.34 42.48, 123.67 -0.28 M-0.35 139.86 C37.82 95.31, 74.53 54, 122.54 -0.79 M0.05 146.16 C41 93.92, 85.29 47.5, 125.65 1.26 M-0.05 146.53 C30.56 112.07, 61.42 77.19, 126.69 -0.3 M-0.31 151.46 C48.32 96, 99.93 41.19, 131.46 -0.72 M-0.29 152.48 C45.01 99.98, 91.61 46.15, 132.61 -0.72 M-1.3 157.21 C29.26 127.1, 56.96 93.91, 136.92 -0.24 M0.13 158.74 C30.35 122.59, 62.61 87.28, 137.57 1.08 M0.36 163.77 C38.85 122.13, 72.11 82, 143 1.12 M0.26 163.83 C40.49 121.03, 80.57 74.78, 143.8 -0.8 M-0.58 171.18 C55.3 108.71, 108.69 43.98, 149.25 0.75 M0.03 170.51 C29.45 136.16, 59.72 101.12, 148.5 0.09 M0.23 177.06 C46.07 121.91, 90.41 69.57, 153.48 0.52 M0.25 176.73 C57.28 111.12, 114.22 45.4, 154.17 -0.35 M-1.11 183.9 C46.34 126.91, 95.93 69.92, 159.73 -1.31 M0.62 182.34 C46.06 130.5, 91.41 77.81, 158.81 -0.48 M0.85 190.02 C64.18 117.21, 128.34 43.41, 164.34 -1.28 M-0.02 188.62 C53.56 126.06, 107.89 62.7, 164.4 -0.15 M0.27 196.42 C51.75 131.46, 106.04 68.47, 170.4 1.4 M0.77 194.37 C52.1 134.97, 104.72 75.71, 168.98 0.1 M0.6 202.19 C45.88 146.1, 96.24 91.75, 174.37 0.54 M-0.49 201.33 C58.6 136.55, 116.01 70.7, 174.94 0.25 M0.75 207.03 C44.22 151.42, 89.64 99.79, 179.82 1.41 M0.89 206.27 C64.45 134.48, 128.32 61.75, 179.66 0.07 M-0.81 213.5 C57.7 149.2, 115.12 81.27, 184.66 -0.04 M0.39 213.13 C59.64 145.3, 118.7 77.36, 185.28 0.05 M-0.63 220.03 C73.7 132.73, 147.88 49.6, 191.12 1 M-0.19 220.34 C45.74 164.64, 92.63 110.97, 190.93 0.85 M1.26 225.89 C65.4 153.12, 128.18 76.84, 196.8 1.08 M-0.4 224.74 C74.66 141.22, 147.72 55.32, 196.34 -0.41 M0.68 231.67 C67 156.54, 133.23 80.22, 201.13 0.43 M-0.26 231.64 C55.24 171.06, 109.7 107.97, 201.65 -0.01 M-0.64 236.57 C70.66 159.56, 139.25 79.01, 205.66 0.82 M0.48 237.47 C72 154.63, 144.17 71.5, 206.64 -0.51 M0.42 242.61 C65.37 168.89, 128.72 93.94, 211.17 -0.28 M-0.04 243.82 C46.84 190.28, 91.98 136.85, 211.75 -0.49 M-1.42 249.09 C47.44 195.23, 97.54 138.42, 218.32 -0.31 M-0.71 250.37 C83.94 153.03, 167.29 58.2, 217.53 -0.15 M1.46 255.89 C70.18 176.69, 137.18 98.28, 222.26 -0.03 M0.31 256.32 C79.48 166.11, 158.27 76.65, 222.74 0.41 M-0.16 262.82 C61.99 191.4, 125.04 120.49, 226.97 -0.09 M0.18 262.43 C47.12 208.64, 94.33 153.88, 228.11 -0.24 M0.32 268.09 C77.03 177.58, 154.21 89.24, 233.91 -0.67 M-0.1 267.63 C61.46 195.28, 124.01 124.04, 232.9 -0.36 M0.76 273.98 C56.13 210.84, 111.62 144.35, 237.43 -0.52 M-0.54 274.74 C61.57 203.36, 122.99 131.68, 238.06 0.06 M-1.12 279.93 C76.32 192.41, 155.21 101.13, 243.1 -0.26 M-0.33 280.6 C97.27 169.01, 195.57 56.69, 243.45 0.11 M-0.22 287 C69.91 210.41, 136.39 131.94, 248.55 0.99 M0.77 285.77 C88.2 184.93, 176.78 82.76, 248.31 0.79 M-0.09 293.81 C61.21 221.81, 124.14 151.45, 255.47 0.22 M0.41 293.33 C83.37 197.72, 166.91 100.71, 255 -0.47 M1.28 298.45 C99.98 182.44, 202.81 65.98, 260.4 -0.22 M-0.12 298.77 C57.14 235.88, 112.42 172.1, 258.93 0.21 M-0.08 305.09 C105.02 182.83, 211.2 62.63, 264.41 0.91 M-0.21 304.82 C75.32 220.36, 148.69 136.15, 264.87 -0.15 M-0.64 311.56 C57.9 246.82, 114.54 181.76, 270.71 -0.59 M-0.62 311.14 C90.27 207, 180.09 103.34, 269.86 -0.21 M0.23 317.17 C91.49 213.08, 183.32 108.6, 276.13 -0.4 M0.12 317.06 C58.64 249.79, 115.69 182.73, 275.86 -0.56 M0.37 322.5 C58.86 254.06, 119.1 186.36, 280.2 1.07 M-0.22 323.75 C89.95 221.27, 179.68 118.2, 280.99 0.42 M0.31 329.11 C86.77 225.79, 175.9 124.06, 285.46 -0.6 M0.12 329.35 C93.64 220.97, 188.33 112.45, 286.35 -0.53 M-0.29 334.94 C79.47 243.19, 160.88 150.39, 290.86 1.07 M-0.07 334.84 C101.74 218.18, 203.57 101.04, 291.61 0.06 M0.47 342.19 C69.47 260.32, 140.06 179.09, 296.84 0.74 M-0.51 342.06 C114.29 208.77, 229.4 75.79, 296.62 -0.1 M0.73 347.29 C108.7 222.1, 218.68 96.83, 302.8 0.49 M0.03 347.01 C96.86 237.71, 192.84 126.61, 302.02 0.55 M-0.49 353.77 C106.82 230.82, 213.72 109.45, 308.25 -0.75 M-0.29 354.06 C114.34 220.45, 229.37 88.52, 307.98 0.17 M0.69 359.02 C63.37 286.14, 126.22 215.34, 312.06 -0.37 M0.42 359.21 C93.21 251.75, 185.77 145.49, 312.84 0 M-0.53 366.59 C99.2 254.19, 198.35 141.34, 318.9 -0.13 M-0.21 365.69 C70.63 285.77, 140.57 204.26, 318.57 -0.17 M-0.78 371.98 C72.45 289.81, 143.23 207.88, 322.54 0.67 M-0.42 372.17 C80.38 281.29, 159.95 189.07, 322.82 0.02 M-0.44 377.63 C106.45 256.49, 212.94 133.71, 328.1 -0.87 M0.18 378.04 C99.6 261.52, 199.62 145.67, 328.71 -0.31 M-0.65 384.63 C76.52 297.74, 151.05 211.67, 333.68 0.09 M-0.16 383.92 C112.16 257.16, 222.57 129.91, 333.65 -0.33 M0.24 390.08 C78.43 301.28, 154.28 213.91, 339.02 0.27 M0.02 389.82 C117.91 256.31, 233.26 123.15, 339.91 -0.38 M-0.47 396.02 C102.84 276.81, 207.62 155.95, 343.88 -0.24 M0.39 396.33 C136.01 238.81, 273.8 80.53, 344.38 0.29 M0.15 403.18 C132.18 248.28, 265.85 95.69, 349.24 -0.19 M0.17 402.75 C101.88 287.04, 202.99 169.57, 349.13 0.6 M0.48 408.3 C114.83 275.1, 229.17 143.44, 355.9 -0.72 M0.45 408.49 C104.29 286.52, 208.5 166.72, 355.28 0.15 M-0.63 415 C141.58 252.93, 282.75 91.47, 360.68 -0.07 M-0.24 414.81 C90.5 310.31, 181.46 204.73, 359.85 0.56 M-0.19 421.06 C88 320.43, 175.82 219.46, 366.4 0.17 M-0.09 420.99 C129.58 274.73, 258.24 126.66, 365.74 -0.29 M-0.42 426.15 C142.39 260.81, 286.22 95.56, 370.02 0.91 M-0.1 426.85 C140.35 268.06, 279.41 107.87, 370.51 0.04 M0.22 433.86 C145.83 261.69, 292.85 91.91, 376.41 0.17 M-0.06 433.35 C111.89 305.74, 224.27 177.27, 376.27 -0.39 M-0.56 439.13 C126.11 291.73, 253.89 144.57, 381.75 0.53 M0.28 439.13 C129.5 289.98, 258.82 140.82, 381.55 0.4 M0 445.2 C152.46 269.6, 305.34 94.1, 387.28 0.51 M0.32 444.89 C136.14 289.41, 272.12 133.46, 387.3 0.22 M-1.1 451.06 C130.4 303.94, 260.71 154.82, 392.28 0.45 M-0.13 451.6 C109.34 325.96, 217.35 201.48, 391.92 0.17 M-0.4 456.68 C100.16 340.64, 201.3 225.02, 398.28 0.27 M-0.05 456.98 C131.18 307.15, 261.15 158.06, 398.03 -0.27 M-0.6 464.29 C125.62 321.18, 249.35 179.4, 401.97 0.58 M-0.08 463.75 C103.03 345.5, 205.81 228.02, 402.72 0.25 M0.23 469.76 C101.71 351.19, 203.55 233.56, 409.05 0.41 M-0.07 469.34 C132.92 317.44, 265.71 164.63, 408.35 0.04 M-0.84 475.64 C135.9 318.4, 270.9 163.37, 412.72 -0.09 M-0.34 475.49 C160.59 292.35, 321.09 108, 413.57 0.29 M-0.82 482.53 C107.06 360.64, 213.2 238.09, 418.74 -0.27 M-0.02 482 C102.71 363.83, 205.31 246.12, 418.51 0.07 M-0.2 487.1 C120.8 344.84, 243.82 204.31, 423.95 0.47 M0.1 487.74 C140.06 325.33, 279.21 164.73, 423.83 -0.07 M-0.35 493.86 C92.66 385.88, 186.06 280.25, 430.06 0.5 M-0.06 494.33 C116.04 358.01, 233.95 222.74, 429.48 0.09 M0.06 499.27 C98.16 388.49, 192.21 278.42, 435.03 0.17 M0.6 499.6 C164.51 310.03, 329.38 121.11, 434.58 -0.01 M-0.41 505.58 C117.98 371.93, 235.49 235.44, 440.45 -0.34 M0.24 505.9 C171.96 307.91, 343.65 109.73, 440.16 -0.27 M-0.82 513 C169.99 314.94, 341.02 119.85, 444.48 -0.02 M-0.63 512.69 C163.76 321.28, 329.28 130.69, 445.04 0.42 M0.62 517.83 C101.56 400.92, 203.02 283.75, 450.88 -0.8 M0.7 517.16 C120.4 376.74, 241.99 237.25, 450.98 0 M6.19 517.13 C173.66 324.5, 340.78 132.47, 455.53 -0.09 M5.64 517.74 C183.19 314.42, 359.58 111.39, 456.15 -0.03 M11.22 516.84 C140.77 367.37, 270.81 218.1, 461.85 -1.01 M11.45 517.5 C181.66 322.71, 350 128.49, 461.1 -0.33 M15.7 516.94 C113.13 406.22, 210.73 295.75, 465.76 -0.13 M16.58 517.8 C135.43 382.95, 252.93 248.06, 466.2 -0.25 M21.57 516.96 C173.27 342.13, 326.49 166.3, 471.98 -0.1 M21.69 517.38 C139 379.57, 257.42 242.97, 471.37 0.44 M26.4 517.78 C149.66 374.15, 273.19 232.5, 477.49 0.41 M26.66 517.93 C136.79 389.76, 246.93 262.02, 476.8 -0.36 M33.25 517.09 C141.65 394.05, 250.16 268.09, 481.34 0 M33.01 517.1 C159.26 368.13, 288.11 221.1, 481.72 0.32 M37.95 517.59 C190.1 341.28, 345.81 164.61, 487.38 0.33 M37.69 517.27 C195.35 333.2, 354.61 150.49, 487.69 0.28 M43.76 517.61 C198.73 341.55, 353.73 163.45, 493.22 -0.09 M43.52 516.94 C168.53 372.63, 295.17 227.23, 492.46 0.13 M48.7 517.76 C206.12 340.64, 361.66 161.6, 498.43 -0.87 M48.2 517.92 C155.44 396.78, 260.81 275.72, 497.94 -0.51 M53.09 518.69 C220.35 324.26, 387.6 131.76, 503.08 0.52 M53.23 518.29 C181.39 372.03, 309.22 224.74, 503.27 0.14 M58.17 517.55 C166.57 393.64, 274.15 268.78, 509.56 -0.66 M58.66 517.37 C186.27 373.07, 313.09 227.33, 508.77 -0.15 M63.93 518.11 C220.11 339.46, 374.68 161.11, 514.71 -0.19 M63.82 517.85 C163.63 404.27, 262.8 289.44, 513.78 0.35 M69.42 518.09 C217.41 348.93, 362.38 181.24, 519.64 -0.64 M69.45 517.64 C214.93 346.56, 362.43 177.47, 519.89 -0.48 M73.75 518.19 C187.66 388.23, 302.52 255.81, 525.05 0.02 M74.35 518.15 C170.88 409.22, 265.16 300.73, 524.74 0.16 M80.23 516.75 C222.54 355.4, 365.32 192.31, 529.88 -0.94 M80.52 517.76 C238.17 338.2, 395.67 157.36, 529.99 -0.18 M84.59 517.14 C254.64 321.19, 424.92 126.37, 534.58 0.43 M85.06 517.74 C202.31 382.43, 319.37 248.32, 535.22 0.33 M90.33 517.59 C213.1 375.62, 337.78 233.12, 541.42 -1.03 M90.91 517.31 C253.42 329.45, 418.3 140.25, 541.06 0.04 M95.26 518.64 C265.89 318.78, 437.93 121.05, 546.52 -0.18 M95.52 517.94 C263.43 323.33, 431.94 130.02, 545.45 0.17 M102.17 517.72 C235.55 366.92, 366.64 215.35, 551.34 -0.52 M101.61 517.63 C255.09 342.97, 407.42 167.56, 551.63 -0.57 M106.89 518.23 C200.22 409.08, 292.83 303.35, 556.4 0.4 M106.63 517.63 C215.21 391.09, 325.3 264.59, 556.37 0.38 M112.16 517.71 C290.48 314.19, 466.28 111.06, 561.46 0.04 M111.94 517.45 C234.16 377.91, 356.23 237.92, 561.96 0.03 M117.34 518.51 C287.18 321.11, 457.55 125.93, 567.32 0.66 M117.04 517.65 C278.45 331.78, 441.23 144.52, 566.86 0.22 M122.63 517.58 C223.64 399.01, 324.99 280.27, 572.75 -0.03 M122.37 517.25 C261.14 359.52, 398.87 201.07, 572.85 -0.17 M128.42 517.14 C267.17 355.97, 406.86 194.75, 577.9 -0.65 M127.52 518.04 C264.33 361.04, 400.73 204.48, 577.32 0.33 M133.07 517.65 C307.95 317.07, 482.99 117.26, 582.22 0 M133.26 517.29 C239.43 394.78, 344.2 274.09, 582.95 0.36 M138.67 517.27 C314.25 312.98, 490.32 109.58, 587.9 -0.54 M138.15 517.59 C244.64 394.98, 351.72 271.61, 588.49 -0.1 M144.07 517.67 C276.52 364.36, 410.2 209.99, 592.83 0.07 M143.73 517.19 C317.58 319.24, 489.58 121.73, 593.45 0.03 M148.98 517.07 C284.41 361.26, 418.66 204.47, 599.03 -0.51 M148.77 517.45 C253.32 398.7, 357.98 278.86, 598.64 0.31 M155 517.65 C291.43 361.01, 429.6 201.06, 603.9 -0.18 M154.43 517.15 C298.62 347.67, 444.68 180.63, 603.66 -0.09 M160.16 517 C292.4 366.45, 424.04 214.27, 609.32 0.55 M159.34 517.55 C313.18 341.16, 465.99 165.7, 609.59 -0.11 M164.08 517.85 C255.93 412.97, 347.92 308.22, 614.52 -0.37 M164.89 518.28 C334.48 325.09, 502.66 131.29, 614.91 0.27 M170.57 517.38 C313.01 356.9, 454.71 193.94, 620.34 -0.74 M170.36 517.79 C307.53 356.31, 446.46 196.93, 619.85 -0.06 M175.05 518.1 C316.87 357.23, 456.58 195.14, 625.34 0.53 M174.91 517.6 C303.52 370.65, 432.21 222.61, 625.44 0.14 M180.1 517.59 C306.53 371.3, 433.92 225.29, 631.61 -0.34 M180.84 517.64 C307.67 372.43, 432.73 228.06, 630.69 -0.46 M186.01 518.36 C354.19 322.54, 525.88 125.89, 636.14 0.2 M185.88 517.78 C349.79 332.49, 512.15 145.69, 635.63 0.14 M190.99 516.86 C285.79 411.96, 379.9 304.07, 641.39 -0.32 M191.14 517.32 C318.07 372.06, 445.04 226.44, 641.71 -0.06 M196.08 518.1 C329.68 366.38, 461.51 214.65, 646.64 0.2 M196.58 518.08 C349.99 342.13, 502.49 167.45, 646.8 0.45 M202.2 518.29 C326.7 373.21, 451.82 231.01, 652.24 -0.1 M201.75 517.45 C357.69 340.77, 511.98 163.54, 652.03 0.15 M207.07 517.86 C375.64 324.68, 542.87 129.63, 657.3 0.35 M206.9 517.93 C340.52 362.45, 475.93 207.61, 656.79 0.41 M213.43 516.87 C376.04 328.46, 540.62 138.54, 662.31 -0.42 M212.88 517.78 C382.81 321.18, 552.36 126.26, 663.12 -0.26 M217.97 518.44 C339.97 379.6, 461.88 239.85, 668.5 -0.48 M217.47 518.14 C384.1 325.58, 551.08 133.52, 667.57 -0.26 M222.74 517.8 C369.32 347.9, 515.38 178.75, 674.05 -0.99 M223.29 517.68 C353.51 366.94, 485.04 215.2, 673.55 0.08 M228.89 518.5 C348.31 379.03, 468.6 240.85, 678.19 -0.35 M228.47 518.1 C329.02 402, 429.08 286.46, 678.44 -0.29 M233.7 518.19 C368.93 362.17, 502.99 207.77, 683.86 0.38 M233.85 517.23 C365.4 365.66, 497.32 213.82, 684.26 -0.13 M238.69 518.55 C412.02 318.36, 582.18 121.62, 689.02 0.15 M239.19 517.73 C399.94 332.07, 561.49 146.6, 688.84 0.4 M245.04 517.39 C334.38 411.02, 426.86 306.09, 694.08 -1.08 M244.77 517.73 C411.27 326.72, 576.79 135.98, 694.9 -0.39 M248.94 516.98 C366.98 382.45, 484.61 245.52, 699.61 0.29 M249.25 517.96 C354.45 396.73, 459.68 276.12, 699.54 0.2 M254.6 517.81 C362.42 393.64, 470.42 268.61, 705.13 0.48 M255.2 517.21 C348.5 410.26, 439.91 304.37, 704.38 0.3 M259.97 517.24 C393.78 364.75, 524.81 214.26, 710.1 -0.02 M259.81 517.86 C414.06 340.42, 567.05 164.57, 710.64 0.33 M266.58 517.73 C357.71 414.11, 449.3 308.5, 715.74 0.1 M266.01 517.3 C391.17 374.86, 516.55 229.8, 715.54 0.06 M270.04 517.45 C400.14 370.52, 530.38 221.87, 721.37 0.63 M270.76 517.48 C410.85 353.86, 552.82 191.26, 721.17 -0.47 M276.31 516.89 C436.71 334.56, 595.22 152.19, 726.18 0.17 M276.2 517.17 C437.69 328.34, 601.07 141.74, 725.97 0.64 M280.96 517.56 C460.11 315.5, 637.39 111.3, 731.03 -0.51 M281.12 517.45 C385.59 395.5, 491.4 273.7, 731.88 0.14 M286.41 518.06 C442.3 337.99, 599.29 157.24, 736.97 0.18 M286.66 517.94 C382.54 406.65, 478.9 295.19, 736.63 0 M292.47 517.02 C469.03 312.08, 646.38 108.69, 742.25 0.06 M291.84 517.75 C438.07 350.7, 583.13 183.73, 742.48 -0.35 M297.39 518.38 C440.03 352.03, 583.94 186.23, 747.31 -0.14 M296.76 517.62 C427 368.92, 557.63 218.27, 746.85 -0.12 M303.02 517.12 C395.31 410.69, 486.34 305.83, 753.32 0.14 M303.01 517.34 C408.57 395.54, 515.26 272.84, 752.77 -0.08 M307.74 517.94 C480.69 319.24, 655.16 117.86, 757.57 0.02 M308.04 517.65 C415.67 395.25, 521.96 272.89, 757.86 0.57 M313.85 517.02 C479.39 328.27, 643.46 139.43, 763.27 0.55 M313.44 517.73 C486.15 315.93, 660.82 115.98, 763.13 -0.4 M318.94 517.53 C474.65 335.95, 632.68 155.09, 768.46 0.15 M318.45 517.89 C492.57 315.33, 667.89 113.39, 768.43 0.54 M323.3 517.75 C485.79 331.09, 648.13 146.01, 774.26 -0.39 M324.28 517.84 C419.58 404.8, 517.26 292.74, 774.03 0.08 M329.21 518.6 C506.08 315.79, 681.14 113.18, 778.6 0.77 M329.23 517.78 C457.07 371.69, 583.82 226.22, 779.26 0.02 M334.05 518.19 C468.26 363.93, 601.99 209.4, 784.41 0.28 M334.6 517.51 C476.54 354.23, 618.01 191.54, 784.89 -0.47 M339.11 517.68 C507.72 323.48, 677.81 128.69, 790.17 -0.52 M339.78 517.5 C490.09 346.95, 640.19 173.78, 789.39 -0.16 M345.93 517.48 C448.35 398.25, 550.41 279.96, 792.32 2.81 M345 517.17 C484.38 354.27, 624.88 192.61, 792.64 2.72 M350.73 518.33 C506.66 336.71, 664.79 155.87, 792.87 8.05 M350.42 517.62 C511.11 331.63, 671.31 147.5, 793.36 8.45 M355.1 517.44 C453.2 402.9, 552.55 288.74, 793.15 15.12 M355.64 517.44 C525.78 323.94, 695.44 129.1, 792.91 15 M360.5 517.6 C472.57 387.85, 586.49 257.43, 792.69 20.86 M361.21 517.88 C477.64 380.88, 595.56 244.59, 792.8 20.48 M366.07 516.94 C497.16 369.41, 626.11 220.92, 793.47 27.51 M366.57 517.08 C517.77 346.95, 666.66 175.31, 792.98 26.97 M371.19 517.99 C460.75 418.07, 546.36 317.88, 792.24 33.28 M371.53 517.58 C525.44 338.91, 679.82 161.27, 792.37 33.03 M376.47 517.51 C500.36 373.9, 627.4 229.12, 792.74 39.21 M377.41 517.42 C525.27 345.01, 674.84 172.35, 792.79 39.1 M381.5 517.07 C541.05 336.03, 699.12 153.11, 793.14 45.66 M382.1 517.59 C477.42 408.35, 572.31 298.06, 792.93 45.25 M387.47 517.74 C550.58 331.48, 711.11 146.5, 793.56 50.07 M387.67 517.17 C476.72 415.18, 565.46 313.78, 793.22 50.59 M393.28 517.87 C547.72 337.97, 702.14 160.34, 793.02 56.84 M392.98 517.56 C495.53 400.5, 597.77 282.86, 792.92 57.16 M397.53 518.06 C475.23 425.21, 554.94 333.62, 792.2 63.81 M397.38 518.36 C501.66 397.15, 606.67 276.83, 792.61 63.79 M402.71 516.87 C506.06 398.39, 608.59 279.33, 793.66 70.01 M403.13 517.88 C525.52 378.67, 646.74 239.38, 792.95 69.38 M409.01 518.48 C504.26 404.46, 601.78 291.9, 793.24 76.12 M408.44 518.12 C519.9 392.49, 629.43 266.38, 793.02 75.93 M413.91 517.64 C515.79 398.73, 617.98 281.29, 793.22 81.41 M414.07 517.75 C513.98 400.34, 615.88 283.88, 793.19 81.09 M418.65 517.53 C542.22 376.29, 666.28 234.67, 793.64 88.01 M418.72 517.63 C497.43 430.02, 575.33 340.83, 792.65 88.1 M425.33 517.18 C547.23 378.51, 668.48 238.53, 792.69 94.67 M424.65 517.9 C528.29 395.47, 633.87 274.42, 793.06 94.41 M428.97 518.07 C550.97 377.84, 673.72 238.5, 792.53 100.42 M429.88 517.86 C573.56 351.92, 718.1 186.09, 792.91 99.39 M435.37 517.97 C562.79 372.38, 689.87 227.44, 793.02 105.86 M435.43 517.85 C549.12 388.62, 661.9 259.02, 792.68 106.14 M440.43 517.6 C515.06 430.96, 589.54 344.9, 792.99 112.53 M439.91 517.56 C568.92 369.84, 698.3 220.63, 793.32 112.05 M446.36 517.56 C564.25 383.34, 682.01 247.59, 793.49 118.35 M445.92 517.09 C516.27 437.48, 586.58 356.29, 793.34 118.34 M450.63 517.09 C532.69 425.14, 612.78 331.98, 792.59 124.96 M450.72 517.66 C543.38 410.31, 635.84 304, 792.89 124.67 M455.77 517.35 C544.32 415.71, 632.33 315.27, 793.59 131.02 M456.56 517.07 C584.95 366.79, 714.1 218.38, 793.32 130.07 M461.51 518.58 C564.43 399.25, 665.87 281.37, 793.2 135.9 M461.37 517.63 C527.48 439.21, 594.44 362.54, 793.12 136.73 M466.6 517 C592.41 374.78, 715.35 232.1, 793.15 143.03 M467.52 517.61 C595.37 371.1, 722.77 224.99, 793.23 142.57 M472.14 517.97 C560.08 418.46, 646.15 319.66, 793.07 148.08 M472.46 517.53 C569.22 407.18, 665.51 296.53, 792.88 148.76 M476.94 516.81 C583.98 395.65, 689.27 274.07, 792.45 155.34 M477.46 517.3 C586.12 394.59, 693.06 271.38, 792.53 154.75 M482.74 516.93 C602.99 378.47, 724.6 239.49, 793.43 160.13 M482.42 517.6 C556.98 431.89, 632.23 345.8, 793.02 160.46 M489.15 517.05 C567.05 425.03, 647.07 334.24, 792.52 166.84 M488.04 517.07 C564.29 430.32, 638.87 344.01, 792.63 167.16 M493.94 517.73 C578.4 423.39, 661.21 327.84, 793.86 173.14 M492.99 517.86 C600.73 396.11, 706.85 274.22, 792.9 172.83 M498.22 516.87 C572.38 431.5, 648.13 344.92, 793.75 178.21 M498.63 517.6 C591.73 410.94, 683.89 304.93, 793.38 179.46 M503.96 518.59 C608.11 396.61, 713.95 274.67, 792.12 184.97 M503.74 517.55 C589.56 418.81, 674.7 321.24, 792.7 185.83 M509.19 517.14 C600.05 416.28, 689.38 314.05, 793.72 191.74 M510.11 517.59 C580.09 436.85, 650.19 356.34, 793.26 190.98 M515.26 517.59 C574.86 447.08, 637.18 375.44, 793.78 197.77 M515.13 517.54 C619.59 397.82, 724.49 276.91, 792.84 197.46 M518.91 518.38 C576.69 449.91, 634.37 383.99, 793.2 203.01 M519.83 517.81 C608.77 415.03, 698.85 312.39, 793.03 203.33 M525.79 518.3 C592.76 439.57, 661.56 360.23, 793.36 209.94 M524.8 518.01 C590.74 441.78, 655.73 367.63, 793.43 210.05 M531.16 518.58 C583.79 455.46, 637.81 395.04, 792.92 216.84 M529.72 517.83 C619.26 414.94, 708.32 312.21, 792.85 216.58 M535.85 518.5 C587.89 457.63, 640.03 398, 794.17 221.88 M535.65 517.68 C634.74 405.61, 734.16 291.6, 793.23 221.39 M541.07 518.92 C623.08 423.25, 706.03 328.53, 792.85 228.69 M541.26 517.92 C605.15 442.34, 669.98 366.94, 793.16 227.5 M547.57 517.08 C602.26 455.08, 659.98 389.55, 794.05 233.89 M546.79 517.71 C603.06 452.55, 661.25 384.78, 792.8 233.65 M552.18 517.19 C627.32 429.53, 700.19 344.17, 793.7 241.07 M551.61 517.41 C636.65 421.21, 721.38 323.79, 793.35 240.62 M556.37 518.27 C611.15 455.74, 664.94 395.73, 792.21 245.58 M557.04 517.84 C622.89 443.99, 687.17 370.33, 792.37 246.95 M563.44 517.03 C620.13 449.85, 678.34 382.68, 793.75 252.62 M562.79 517.43 C624.37 444.48, 687.55 370.8, 792.74 251.63 M566.69 518.2 C646.35 425.67, 724.9 338.72, 793.68 259.18 M568.21 518.03 C636.57 438.11, 705.39 357.92, 792.51 258.95 M572.14 517.14 C650.8 428.81, 726.2 342.32, 794.23 264.86 M572.67 517.9 C656.74 420.11, 740.39 323.07, 793.12 264.5 M578.83 518.32 C628.54 456.06, 680.54 397.04, 793.79 269.95 M578.17 517.86 C621.16 465.34, 666.66 413.34, 793.32 270.09 M583.42 517.1 C656.49 434.02, 732.49 345.83, 792.34 276.61 M583.22 517.94 C628.42 465.55, 671.96 415.36, 792.3 276.51 M589.38 516.45 C632.19 465.86, 678.13 414.48, 792 282.65 M589.32 517.13 C664.18 430.53, 739.12 344.38, 793.75 282.81 M592.97 519.13 C661.48 437.46, 729.62 359.33, 793.33 290.37 M593.33 517.97 C633.29 472.25, 673.52 425.1, 792.58 288.97 M601 516.55 C657.18 449.15, 717.45 380.74, 793.59 295.16 M599.87 516.66 C647.2 463.51, 691.89 411.32, 792.8 294.68 M604.73 517.92 C670.07 445.69, 732.8 373.31, 794.17 301.49 M604.97 517.62 C675.84 435.14, 747.94 352.39, 793.58 301.69 M609.68 515.98 C678.38 438.61, 747.42 360.36, 793.03 308.57 M609.91 517.73 C681.94 435.22, 753.46 351.42, 792.8 308.21 M615.3 516.53 C662.2 463.18, 708.86 409.12, 792.79 313.61 M615.2 518 C661.96 462.54, 709.23 407.34, 792.34 313.13 M621.09 518.6 C657.8 474.26, 696.97 430.18, 792.32 319.9 M621.04 516.58 C668.38 462.17, 715.16 408.27, 792.39 319.83 M627.11 516.56 C663.01 474.31, 701.65 434.6, 792.37 326.63 M625.74 517.87 C689.06 445.72, 751.86 373.65, 792.61 325.09 M630.2 518.55 C675.11 466.11, 717.11 415.83, 793.08 331.23 M630.15 518.22 C671.8 471.8, 710.5 425.13, 792.22 331.22 M637.78 516.22 C698.46 446.45, 758.34 377.43, 793.25 338.34 M636.37 517.45 C684.84 464.84, 731.42 409.87, 792.87 338.24 M640.86 517.59 C684.89 468.14, 728.46 416.77, 794.4 342.11 M642.39 518.7 C690.15 463.23, 738.77 407.18, 792.35 344.19 M647.95 518.33 C698.58 460.23, 750.14 402.32, 793.4 349.64 M647.08 517.76 C684.22 476.56, 720.72 435.31, 792.42 349.59 M650.79 518.99 C690.17 472.81, 731.11 427.05, 793.33 355.2 M651.7 518.15 C687.5 476.14, 723.6 436.06, 794.05 355.46 M656.4 518.66 C702.28 465.58, 748.13 412.81, 792.69 361.04 M657.29 518.11 C699.76 470.84, 739.45 425.07, 793.52 361.3 M662.47 519.09 C707.79 462.76, 756.73 410.8, 793 368.57 M662.62 517.02 C692.49 483.41, 723.72 447.16, 792.95 368.32 M669.04 517.63 C714.63 461.74, 762.94 407.76, 794.46 374.75 M668.45 516.66 C712.88 468.73, 754.94 419.37, 792.86 373.43 M674.1 519.58 C707.57 474.48, 744.73 433.21, 793.17 381.03 M673.69 518.53 C698.56 487.75, 725.23 458.13, 792.93 380.39 M678.91 519.22 C706.37 486.08, 730.67 458.86, 791.32 386.08 M679.74 517.23 C718.07 471.11, 757.78 426.38, 794.25 385.71 M684.04 519.47 C726.63 468.05, 771.38 416.1, 791.33 391.35 M684.88 517.28 C724.06 471.37, 765.45 424.28, 792.82 392.25 M690.06 517.51 C725.24 474.07, 762.52 435.58, 793.88 397.31 M690.39 516.79 C716.63 486.2, 744.43 454.41, 792.01 398.73 M693.7 516.3 C732.98 475.69, 768.61 434.79, 791.41 405.27 M695.02 518.26 C716.94 493.21, 738.53 469.1, 793.32 403.66 M700.57 518.12 C731.68 480.07, 761.57 447.02, 791.57 409.23 M701.04 518.19 C734.54 478.81, 770.84 437.18, 792.2 410.35 M705.33 516.23 C731.49 489.7, 758.86 456.89, 793.22 418.15 M704.78 517.91 C736.14 483.62, 764.78 449.55, 793.45 417.32 M712.36 516.31 C737.67 485.39, 768.44 453.44, 794.69 423.56 M710.66 517.19 C738.2 486.06, 763.54 455.78, 793.73 423.1 M716.01 516.11 C736.57 494.2, 754.98 473, 793.74 429.8 M715.69 517.05 C733.52 499.17, 751.11 479.04, 792.92 428.61 M721.2 518.97 C740.25 497.24, 756.38 477.88, 795.07 433.91 M721.54 517.45 C737.15 499.33, 753.87 480.32, 793.98 434.19 M727.69 517.42 C745.23 499.61, 761.43 476.19, 791.76 443.4 M727.06 517.97 C741.67 499.44, 758.13 481.35, 793.72 441.55 M730.7 518.69 C747.63 499.97, 760.58 485.24, 791.35 448.56 M732.3 517.58 C747.14 499.39, 762.46 482.24, 793.19 447.23 M737.15 516.33 C757.09 491.57, 782.53 465.47, 793.97 452.06 M737.06 517.35 C752.6 500.25, 766.39 484.12, 793.21 454.35 M742.31 515.7 C755.29 502.2, 766.65 489.46, 794.39 461.2 M742.89 518.12 C761.87 495.06, 782.09 470.51, 792.75 460.04 M746.01 517.62 C760.27 504.71, 768.65 490.84, 791.52 465.79 M747.67 517.29 C757.09 505.74, 767.4 494.18, 793.73 465.41 M752.66 516.63 C768.26 501.13, 782.38 486.66, 791.83 473.91 M752.94 517.24 C764.95 503.81, 776.56 490.05, 792.84 472.56 M758.74 516.78 C764.49 509.3, 774.84 499.87, 793.43 478.25 M757.72 518.33 C766.98 507.79, 772.93 499.72, 792.94 477.02 M762.22 517.51 C773.29 506.03, 783.92 492.56, 794.21 483.67 M763.35 518.82 C771 509.62, 779.12 500.69, 793.53 484.45 M768.65 517.9 C777 509.17, 785.34 502.52, 791.91 489.51 M769.85 518.41 C776.71 507.89, 786.37 497.83, 792.18 491.16 M773.3 518.29 C780.61 511.84, 785.32 508.11, 791.56 497.39 M773.42 517.9 C780.57 509.77, 788.5 500.31, 792.34 495.02 M779.89 515.77 C784 512.77, 788.43 508.2, 790.97 501.05 M779.52 517.92 C784.18 513.69, 787.59 508.39, 792.1 501.48 M783.44 517.84 C787.71 516.15, 789.06 512.33, 794.23 507.12 M784.51 518.4 C786.69 515.63, 788.65 513.48, 792.86 508.67 M-0.21 516.97 C-0.21 516.97, -0.21 516.97, -0.21 516.97 M-0.21 516.97 C-0.21 516.97, -0.21 516.97, -0.21 516.97 M6.12 516.74 C3.48 515.7, 1.62 513.14, 0.19 512.58 M6.38 517.42 C4.31 516, 2.7 514.13, -0.17 511.76 M12.01 517.38 C6.12 514.4, 3.9 507.75, -0.44 505.47 M12.26 516.35 C7.24 513.27, 2.99 509.37, 0.38 506.84 M17.45 518.14 C12.38 513.58, 10.83 510.5, 0.96 502.36 M18.98 517.13 C12.24 512.16, 7.06 507.73, 0.88 500.46 M24.86 515.39 C16.97 511.09, 5.1 503.65, -1.17 497.63 M24.98 518.04 C14.78 509.11, 3.98 500.25, 0.57 496.5 M28.78 517.51 C19.83 507.93, 11.09 499.83, 1.19 489.35 M29.95 516.43 C21.82 510.77, 14.95 502.45, 0.94 491.63 M35.3 519.01 C26.4 508.46, 15.06 495.06, -0.67 483.52 M36.56 516.33 C25.3 506.16, 14.83 496.56, -0.81 484.79 M44.21 515.61 C32.91 509.23, 20.51 498.75, -0.79 480.65 M42.15 517.49 C31.98 507.2, 21.72 497.95, 0.23 479.36 M48.51 519.09 C33.54 505.12, 20.03 491.92, -1.08 474.15 M48.48 517.26 C30.12 500.61, 12.1 485.48, -0.62 473.57 M56.55 516.22 C37.24 502.14, 22.39 490.52, 0.1 469.08 M55.25 517.79 C40.47 505.62, 26.18 492.54, 0.24 468.5 M59.72 516.33 C49.14 507.5, 34.31 494.68, 2.12 465.12 M60.17 516.71 C37.9 496.87, 14.58 476.35, 0.17 465.19 M66.17 516.82 C53.01 506.77, 37.8 493.18, 1.8 460.14 M67.97 516.77 C45.53 498.1, 23.68 477.97, 0.32 459.32 M73.73 516.78 C57.45 500.74, 39.17 484.44, -0.96 455.68 M73.67 516.68 C45.02 492.54, 14.4 467.61, 0.69 452.93 M79.57 518.52 C58.79 499.33, 35.89 479.64, 1.08 449.97 M79.63 516.75 C55.84 497.89, 33.07 477.49, 0.62 448.51 M83.95 519.12 C62.4 497.71, 38.19 475.9, -0.12 442.7 M85.56 517.61 C67.23 499.21, 47.56 482.41, -0.37 443.97 M92.32 517.41 C58.72 487.19, 26.8 460.96, -0.42 439.38 M92.1 517.31 C64.6 493.91, 38.55 470.21, -0.87 438.16 M98.87 516.72 C71.66 492.74, 45.25 470.59, 1.94 432.09 M98.53 517.31 C67.16 491.8, 36.48 464.88, -0.73 431.76 M104.6 515.91 C67.03 485.83, 29.75 452.52, 1.76 427.83 M104.35 517.61 C78.42 494.62, 54.07 474.25, 0.66 426.82 M109.1 516.88 C80.75 490.01, 52.33 464.53, 0.36 421.36 M109.31 517.39 C85.33 495.33, 59.89 475.08, 1.22 421.67 M116.17 518.12 C88.9 493.15, 56.55 468.21, 0.94 415.45 M116.43 516.77 C72.24 479.15, 29.85 441.17, -0.13 416.43 M122.06 515.63 C74.09 474.01, 24.29 434.2, 2.11 409.72 M122.51 516.86 C96.18 496.93, 72.01 475.36, -0.59 411.97 M128.89 515.77 C103.6 497, 75.15 474.92, 1.27 404.99 M128.96 516.8 C93.83 487.01, 57.28 455.53, 0.22 405.37 M132.8 516.24 C99.88 488.28, 63.06 457.52, 0.04 400.03 M134.28 517.82 C106.88 493.23, 78.76 468.46, 1.1 400.89 M141.7 515.59 C105.4 486.83, 74.71 460.13, -0.26 395.9 M141.14 516.97 C102.53 484.11, 64.8 450.93, -0.98 395.44 M146.93 516.73 C92.93 470.28, 38.87 425.13, -1.19 388.78 M146.36 517.8 C111.45 487.82, 76.24 456.95, -0.11 389.56 M153.29 517.85 C94.83 465.43, 32.85 412.6, 0.16 386.07 M152.45 517.43 C117.14 487.58, 83.38 458.14, 0.32 384.82 M159.1 515.88 C116.75 478.69, 75.05 446.09, 0.83 380.07 M159.44 516.81 C117.73 482.28, 76.14 445.22, 0.62 379.07 M165.36 515.82 C107.35 468.06, 52.26 419.8, -0.6 374.68 M164.67 517.15 C108.88 467.96, 51.1 416.63, 0.21 373.33 M172.09 515.97 C132.66 482.29, 90.89 446.98, 0.67 368.08 M169.9 517.34 C124.1 476.61, 79.46 437.94, 0.65 369.2 M176.74 516.89 C105.63 456.37, 35.16 395.88, 0.55 362.99 M177.18 517.52 C141.89 485.9, 105.09 453.75, -0.47 362.79 M183.83 518.02 C108.26 453.86, 36.68 389.25, -1.22 357.76 M181.89 516.83 C111.56 454.42, 41.84 392.79, 0.54 358.19 M190.08 515.96 C127.2 464.85, 67.67 413.73, 0.47 352.71 M189.45 516.6 C139.9 472.12, 88.91 427.13, -1.16 352.67 M194.01 517.62 C152.94 481.02, 115.76 448.92, -1.41 348.25 M194.88 518.07 C157.82 484, 117.38 449.79, -0.59 346.79 M200.59 515.59 C147.09 473.51, 95.06 427.22, -0.59 341.76 M200.57 517.58 C159.97 481.87, 119.53 448.15, 0.02 341.94 M208.58 517.33 C140.56 456.41, 72.73 398.59, 1.4 335.45 M206.85 517.3 C159.41 474.93, 112.45 432.58, 0.66 337.18 M214.66 517.77 C157.29 469.91, 103.99 424.6, -0.86 333.07 M213.83 517.06 C136.41 450.37, 60.59 384.4, 0.91 331.96 M220.44 518.64 C135.16 443.21, 49.82 371.13, -0.78 326 M219.49 517.1 C169.09 473.11, 116.86 428.32, -0.03 325.93 M226.69 517.23 C152.48 456.62, 80.86 391.91, -0.54 321.11 M225.73 517.86 C164.14 463.5, 100.95 407.57, 0.81 321.57 M230.62 518.43 C177.83 471.39, 125.57 425.56, 0.91 316.74 M231.3 516.55 C158.02 451.13, 83.45 386.33, 0.34 315.8 M236.66 518.67 C150.75 441.98, 63.91 365.46, 0.12 309.56 M237.69 517.65 C190.39 475.3, 141.26 432.77, -0.23 310.24 M243.37 517.25 C188.93 469.14, 136.08 423.66, 0.11 306.09 M243.67 517.25 C185.89 467.63, 127.73 416.93, 0.42 305.62 M249.28 518.1 C185.49 462.16, 121.54 403.94, 0.13 300.64 M250.47 516.81 C155.8 435.7, 63.25 355.09, -0.23 300.52 M256.97 518 C154.65 427.82, 53.88 340.77, 0.59 295.14 M256.41 517.47 C186.14 457.76, 116.36 397.09, -0.06 294.36 M261.22 516.61 C164.16 431.76, 65.01 347.31, -0.82 288.81 M262.34 516.41 C184.35 450.29, 106.26 383.14, -0.23 288.95 M268.35 516.59 C194.39 450.98, 119.27 386.97, 0.38 283.34 M268.4 517.37 C172.78 433.91, 76 350.32, 0.16 284.29 M274.6 516.15 C202.18 451.85, 131.31 389.88, 1.35 278.59 M274.53 516.65 C193.23 446.14, 112.51 375.95, 0.66 279.18 M281.13 517.86 C207.63 453.58, 135.33 390.34, -1.11 272.46 M279.98 516.64 C179.78 428.26, 77.21 339.49, -0.72 273.58 M285.82 516.42 C185.65 431.2, 84.71 343.12, 0.89 266.97 M287.25 517.12 C179.26 423.62, 70.9 329.3, 0.65 267.89 M293.52 516.29 C219.39 454.24, 147.65 390.51, 0.29 262.63 M293.08 516.5 C231.85 463.01, 170.95 409.92, -0.49 262.43 M298.88 516.25 C224.35 450.97, 147.65 384.15, -0.71 257.54 M298.7 517.26 C196.8 428.96, 95.14 340.69, -0.09 257.15 M305.63 517.77 C188.21 416.59, 71.92 317.92, 0.08 251.47 M304.14 517.05 C198.95 426.23, 93.24 334.21, 0.06 252.1 M311.31 516.23 C227.7 442.72, 141.18 368.67, 0.41 247.07 M311.24 517.26 C225.13 445.4, 141.49 372.42, -0.43 247.29 M316.6 517.46 C211.34 424.13, 103.76 331.08, -1.27 242.22 M317.29 517.67 C228.66 441.34, 139.83 363.83, -0.61 240.88 M322.48 517.15 C230.73 437.87, 137.7 356.7, 0.59 236.36 M323.22 517.17 C241.23 444.24, 157.52 371.56, -0.05 236.69 M329.15 517.01 C253.12 452.09, 178.34 386.33, 0.37 231.88 M329.16 517.22 C245.74 445.3, 162.03 372.56, 0.72 231.06 M334.77 517.5 C249.59 445, 162.83 370.1, -0.79 226.4 M334.94 517.02 C243.56 435.2, 150.72 355, 0.24 225.7 M342.08 517.87 C240.79 430.04, 138.35 341.68, 0.37 220.84 M341.76 517.18 C220.96 411.94, 101.99 307.91, -0.14 220.21 M347.04 517.49 C233.51 419.37, 120.03 320.79, -0.98 215.46 M347.56 516.99 C246.74 427.7, 143.9 338.64, 0.15 214.86 M353.26 516.41 C278.36 450.3, 203.21 384.36, -0.39 209.16 M353.77 516.62 C214.25 395.31, 74.56 274.12, 0.6 209.86 M360.61 517.08 C241.71 415.49, 124.79 313.17, -0.96 204.27 M359.6 517.11 C226 402.42, 92.23 286.04, 0.27 204.3 M364.82 516.91 C223.47 393.5, 80.81 270.15, -0.12 198.8 M365.76 517.08 C270.94 436.11, 177.28 354.17, 0.33 199.38 M371.73 516.99 C270.91 427.67, 170.67 340.43, -0.35 194.46 M371.96 516.99 C237.85 400.86, 103.81 284.77, -0.24 193.5 M378.72 517.99 C279.11 431.63, 179.29 344.25, 0.08 189.54 M378.48 517.39 C247.9 402.33, 116.74 287.79, -0.06 189.05 M383.87 517.09 C287.51 432.73, 191.03 348.28, -0.07 182.92 M383.71 517.34 C305 449.41, 226.51 381.5, 0.23 183.37 M390.16 517 C309.66 447.34, 229.27 376.89, 0.84 178.8 M390.36 517.64 C265.41 408.85, 141.48 300.79, 0.28 177.92 M396.8 516.4 C256.85 397.91, 118.98 277.64, 0.22 172.59 M395.72 516.82 C301.05 432.39, 206.06 349.16, -0.47 172.55 M402.66 517.41 C310.84 439.19, 220.22 359.14, 0.33 167.16 M402.38 517.56 C255.58 389.06, 108.19 260.74, 0.33 167.39 M408.7 517.64 C280.5 404.85, 151.41 292.49, -0.44 161.81 M408.5 517.12 C286.81 411.04, 163.69 304.45, -0.54 161.89 M414.5 517.54 C305 420.78, 194.92 325.77, -0.14 157.38 M414.73 516.81 C276.54 396.84, 139.19 277.57, 0.02 156.81 M420.2 517.43 C295.41 406.42, 170.79 298.5, -0.3 151.58 M421.24 517.5 C336.05 443.05, 251.27 369.02, -0.24 151.59 M426.69 516.73 C304.18 409.44, 181.62 303.67, -0.14 145.71 M426.32 516.82 C261.48 372.92, 96.05 229.81, -0.2 146.32 M433.34 517.41 C292.18 396.6, 153.5 274.65, -0.45 139.98 M432.74 516.78 C319.88 420.37, 207.89 323.08, -0.69 140.8 M439.74 516.87 C351.91 439.77, 263.13 363.28, 0.68 135.45 M439.16 517.03 C280.17 378.89, 122.18 241.66, 0.25 135.63 M444.53 517.65 C267.41 361.97, 90.57 209.13, -0.86 129.34 M445.14 516.7 C276.24 372.06, 108.27 225.75, -0.3 129.68 M451.43 517.32 C296.18 380.98, 141.88 245.67, 0.24 124.96 M451.7 517.49 C354.03 433.97, 258.79 350.94, 0.11 125.21 M457.33 516.45 C359.71 431.69, 263.34 348.48, -1.15 119.05 M457.15 516.55 C293.71 374.75, 131.49 234.01, -0.74 118.93 M463.73 516.5 C284.83 361.6, 107.97 206.42, -0.42 114.87 M463.02 516.8 C300.45 376.53, 137.92 235.02, -0.2 114.3 M469.59 516.65 C358.79 418.06, 245.69 320.29, 0.94 108.63 M469.94 517.45 C289.8 362.91, 110.99 207.31, 0.63 109.27 M475.81 516.41 C369.11 425.8, 260.77 330.99, 0.49 104.08 M475.75 517.04 C322.7 383.35, 168.23 250.04, 0.32 103.71 M482.43 517.38 C365.18 416.98, 249.96 317.25, 0.95 99.1 M482.15 516.92 C318.67 377.32, 156.55 235.68, 0.07 98.45 M487.16 516.12 C339.53 386.41, 190.65 256.18, -0.13 93.74 M487.66 516.9 C329.25 379.99, 172.12 243.07, -0.43 93.01 M494.37 517.2 C320.5 367.43, 147.97 215.92, 1.03 88.09 M494.03 517.22 C346.98 388, 199.44 259.5, 0.48 87.92 M500.79 518.03 C355.93 392.89, 211.74 268.12, 0.2 81.66 M500.01 517.46 C359.98 395.75, 220.96 274.54, 0 82.55 M505.53 517.07 C308.32 341.97, 109.16 169.17, -0.29 77.65 M505.59 516.73 C387.02 416.39, 269.72 314.22, -0.08 77.47 M512.95 518.01 C319.18 345.86, 125.18 177.92, -0.95 71.13 M512.52 517.61 C325.05 355.54, 136.93 191.48, 0.17 71.45 M517.53 517.02 C325.65 347.83, 130.74 179.76, -0.16 66.09 M517.78 516.58 C363.67 385.22, 210.38 252.53, -0.04 67.05 M524.91 516.59 C416.23 424.14, 307.21 328.86, -0.44 60.47 M524.31 516.8 C361.86 374.89, 200.94 235.67, 0.01 61.2 M530.33 517.6 C326.03 343.18, 124.05 165.56, -0.18 56.78 M530.44 517.75 C349.93 362.07, 169.85 205.42, 0.53 56.38 M535.92 517.09 C349.29 354.52, 163.91 193.77, 0.01 50.31 M536.08 516.75 C400.77 396.88, 263.36 277.69, -0.47 50.44 M543.12 518.05 C387.61 383.25, 233.39 248.53, 0.79 46.16 M542.87 517.18 C431.65 418.96, 319.14 320.82, 0.29 45.34 M547.97 517.48 C333.75 330.29, 119.81 144.35, -0.61 39.49 M548.05 516.99 C375.71 365.07, 202.68 214.49, 0.11 40.19 M554.92 517.84 C421.24 400.04, 287.93 285.76, -0.57 35.72 M554.77 517 C426.82 405.3, 296.69 292.92, 0.21 35.19 M560.94 516.69 C409.12 382.37, 254.9 248.69, -0.15 29.16 M561.14 517.45 C434.58 405.76, 306 293.53, 0.05 29.46 M567.13 516.46 C353.51 331.79, 138.75 145.62, -0.06 24.83 M566.8 516.61 C369.89 346.12, 173.89 175.57, 0.02 24.16 M573.58 517.49 C366.11 336.66, 159.83 157.27, -0.53 18.69 M573.52 517.07 C411.56 375.82, 248.7 234.28, -0.23 18.79 M578.66 516.43 C392.85 355.18, 204 192.23, 0.48 13.1 M578.58 517 C366.65 334.32, 155.27 151.18, 0.14 13.45 M585.64 516.92 C378.73 337.54, 173.14 158.98, -0.53 8.15 M585.57 517.32 C463.47 411.05, 342.37 305.82, -0.16 8.32 M592.36 516.82 C425.61 377.47, 261.91 234.75, 0.34 2.82 M591.39 517.77 C414.71 365.49, 238.26 211.31, -0.23 2.8 M597.27 517.22 C375.33 320.12, 152.85 126.38, 1.71 -1.23 M597.25 516.79 C435.3 377.15, 274.66 237.6, 1.26 -1.35 M603.1 517.79 C412.5 349.1, 219.82 180.67, 8.29 -1.71 M604 517.35 C451.57 383.69, 299.29 251.27, 7.16 -0.89 M608.93 516.08 C433.48 364.03, 256.97 210.61, 13.95 -1.02 M609.23 517.04 C382.37 319.54, 153.66 121.22, 13.51 -1.08 M616 517.32 C419.19 347.78, 222.47 178.4, 18.86 -1.09 M615.95 517.26 C418.62 345.68, 221.74 174.87, 19.53 -1.33 M621.4 517.71 C499.73 407.22, 375.22 298.93, 25.05 -1.54 M622.48 517.25 C502.74 413.45, 381.23 309, 25.38 -1.22 M628.13 517.39 C480.21 389.37, 335.11 262.12, 31.84 -1.79 M628.17 516.78 C444.98 358.73, 260.99 198.56, 31.71 -1.4 M633.52 516.63 C427.81 340, 222.12 160.71, 38.34 -1.05 M634.04 517.6 C497.67 398.74, 363.68 281.54, 37.9 -1.1 M639.72 517.47 C518.81 410.6, 396.36 305.56, 43.06 -2.09 M640.14 517.13 C415.5 322.46, 192.25 128.43, 43.42 -1.46 M645.92 516.78 C428.82 325.73, 210.32 134.29, 50.8 -1.48 M645.94 517.21 C473.37 367.04, 300.22 217.23, 50.39 -1.28 M652.46 517.52 C520.94 403.35, 387.26 286.68, 55.09 -1.57 M652.58 517.77 C413.87 311.88, 176.58 105.44, 55.87 -1.31 M658.83 516.91 C498.91 379.3, 338.55 238.81, 61.64 -0.56 M658.6 516.7 C493.41 371.12, 328.19 227.21, 62.15 -1.55 M664.15 517.82 C487.56 359.31, 308.74 203.46, 69.2 -1.32 M664.92 517.34 C518.09 392.37, 372.64 266.25, 68.21 -0.71 M670.42 516.82 C504.8 371.19, 339.16 227.81, 74.84 -1.59 M670.34 516.89 C541.9 405.17, 415.63 295.27, 73.87 -1.6 M677.17 517.25 C489.41 352.94, 299.21 188.17, 79.94 -0.94 M676.97 517.24 C513.88 375.06, 352.13 234.34, 80.4 -0.83 M683.14 517.24 C470.73 333.3, 258.2 147.67, 86.32 -0.81 M683.39 517.39 C468.17 333.32, 254.06 147.14, 86.34 -1.55 M688.29 516.32 C486.49 338.65, 283.19 161.64, 93.23 -1.79 M688.72 516.97 C552.13 399.11, 415.33 280.76, 92.63 -1.51 M695.11 518 C519 362.69, 341.01 208.35, 98.28 -0.37 M694.85 517.63 C499.1 348.65, 304.88 179.57, 99.27 -0.92 M701.42 517 C514.5 352.4, 326.24 189.62, 105.02 -0.81 M700.67 516.8 C489.07 329.7, 276.31 144.95, 104.26 -1.05 M707.07 516.34 C573.48 400.67, 439.6 284.95, 110.62 -0.48 M707.2 517.17 C489.99 327.63, 273.98 140.29, 111.02 -0.78 M713.16 517.77 C492.28 328.09, 271.32 135.66, 117.16 -1.9 M713.44 517.23 C540.35 366.49, 368.1 216.73, 116.58 -1.62 M718.52 516.33 C540.94 362.56, 362.82 206.88, 123.02 -1.16 M719.31 516.69 C562.7 382.11, 406.84 246.8, 122.75 -1.09 M724.97 516.6 C535.17 352.11, 342.2 185.53, 129.4 -1.62 M725.89 517.55 C514.09 335.3, 304.21 152.64, 129.16 -0.94 M730.93 517.49 C604.8 407.35, 478.03 298.36, 134.34 -0.81 M731.57 516.62 C579.13 384.76, 426.5 251.4, 135 -1.32 M737.33 517.32 C522.53 327.58, 305.07 138.25, 141.97 -0.67 M737.69 517.01 C581.57 380.14, 424.58 243.92, 141.24 -0.93 M744.42 517.86 C573.24 368.43, 401.84 219.84, 147.4 -1.14 M743.87 517.45 C552.01 347.24, 358.48 178.21, 147.23 -1.73 M749.09 516.54 C525.98 324.11, 302.68 129.15, 152.91 -0.67 M749.88 517.34 C610.74 396.77, 472.24 276.21, 153.47 -0.98 M755.62 516.98 C526.43 320.31, 296.28 120.17, 159.29 -0.99 M756.15 517.43 C586.72 369.65, 417.41 221.84, 159.81 -0.78 M762.25 516.32 C634.4 405.93, 505.37 293.19, 165.42 -1.29 M762.04 516.67 C606.27 378.93, 449.62 242.44, 165.25 -1.77 M767.75 517.41 C532.57 313.65, 298.94 110.61, 171.98 -1.27 M768.56 516.98 C591.09 365.27, 413.9 210.81, 172.14 -1.32 M773.9 517.68 C635.61 395.75, 496.4 274.65, 178.26 -1.88 M774.22 517.73 C628.5 388.2, 480.33 260.12, 177.54 -1.8 M780.39 516.52 C579.79 344.94, 379.81 170.18, 183.24 -1.87 M780.41 517.21 C561.35 326.75, 343.43 136.69, 183.64 -1.46 M786.8 517.09 C576.98 337.74, 366.81 155.7, 190.46 -1.71 M786.75 516.86 C624.01 374.92, 460.15 232.74, 190.76 -1.15 M791.94 516.89 C633.26 377.32, 473.15 239.92, 195.64 -1.87 M791.41 516.35 C648.98 394.14, 508.55 272.21, 195.91 -1.62 M791.15 511.13 C566.8 316.55, 343.84 120.91, 202.35 -1.76 M791.21 510.59 C601.17 346.96, 411.27 181.77, 202.21 -1.3 M791.31 504.84 C569.97 313.12, 348.7 119.94, 208.47 -1.31 M791.36 505.48 C619.79 355.87, 448.55 206.88, 208.27 -1.81 M791.72 499.15 C610.13 341.22, 430.29 183.26, 214.43 -1.54 M790.72 499.51 C581.73 316.12, 372.64 134.37, 214.18 -1.6 M792.02 494.76 C625.69 350.42, 459.58 207.93, 220.91 -1.28 M791.52 494.85 C638.21 359.91, 483.83 226.34, 220.53 -0.67 M790.72 489.67 C663.38 378.76, 535.75 266.86, 226.82 -0.99 M791.22 489.55 C644.7 364.5, 499.46 238.22, 226.56 -1.49 M791.83 485.07 C591.92 313.18, 393.3 141.65, 233.01 -0.98 M791.71 484.68 C604.63 322.37, 417.01 158.98, 232.76 -1.58 M790.57 478.34 C581.82 295.72, 373.29 114.88, 239.14 -2.17 M791.09 479.01 C644.83 352.54, 500.46 226.53, 238.73 -1.81 M791.22 473.67 C591.78 301.61, 394.21 129.44, 244.65 -1.01 M791.32 473.7 C677.03 375.84, 564.05 277.56, 244.65 -1.23 M791.22 468.68 C623.63 323.29, 456.36 177.9, 252.12 -1.44 M790.82 467.79 C616.37 315.71, 440.17 162.48, 251.58 -1.42 M791.02 463.49 C665.52 354.14, 542.61 246.55, 256.46 -1.92 M791.26 462.87 C665.11 352.71, 538.45 241.92, 256.83 -1.38 M790.97 456.88 C610.3 303, 430.51 146.66, 263.78 -0.84 M791.02 457.77 C586.69 280.35, 382.6 102.67, 263.28 -0.94 M791.59 452.16 C626.03 308.21, 461.97 165.42, 268.23 -1.24 M791.16 452.47 C619.71 304.55, 449.37 155.72, 268.88 -1.41 M790.45 446.96 C646.74 318.74, 500.3 192.05, 274.7 -1.79 M791.26 446.77 C648.63 320.66, 504.62 194.91, 275.76 -1.68 M792.03 442.33 C638.94 308.01, 486.5 175.72, 282.03 -1.54 M791.4 441.79 C680.05 345.8, 570.69 249.92, 282.08 -1.29 M790.98 436.3 C630.22 296.08, 466.92 154.96, 287.49 -2.12 M791.97 436.86 C677 338.24, 563.03 239.57, 287.37 -1.42 M790.98 431.34 C640.82 303.4, 491.96 172.82, 293.61 -1.13 M791.07 431.04 C600.91 262.72, 408.32 95.75, 293.55 -1.39 M792.36 426.54 C627.62 280.6, 462.44 138.34, 300.26 -0.97 M791.86 426.5 C624.97 280.73, 456.97 134.35, 299.54 -1.39 M790.61 420 C611.27 265.24, 431.82 108.24, 305.71 -2.08 M790.81 420.24 C613.25 265.11, 436.23 111.61, 306.02 -1.34 M791.78 415.56 C611.63 260.25, 434.13 105.18, 313.04 -0.57 M791.24 415.67 C630.01 274.24, 468.35 134.33, 312.44 -1.18 M791.04 410.16 C604.59 246.05, 417.57 83.9, 317.86 -0.83 M790.79 409.57 C689.2 322.02, 586.42 232.95, 318.01 -1.44 M791.24 405.27 C618.11 252.81, 443.31 100.54, 323.91 -1.68 M791.79 405.3 C691.94 318.52, 593.02 232.87, 324.67 -0.98 M791.11 399.14 C609.43 244.54, 430.23 87.8, 329.54 -1.19 M791.1 398.97 C673.05 298.55, 556.85 197.19, 329.73 -1.65 M791.04 395.01 C671.79 293.11, 552.54 189.41, 335.96 -1.99 M791.31 394.25 C626.39 251.82, 462.44 109.18, 336.63 -1.24 M790.82 388.52 C698.44 306.66, 604.88 227.29, 343.3 -1.64 M791.36 388.55 C646.73 263.34, 501.23 137.44, 342.72 -1.3 M792.24 383.99 C686.4 294.49, 581.19 204, 348.67 -1.22 M791.34 383.78 C672.93 281.97, 554.29 178.97, 348.71 -1.72 M790.48 378.57 C691.77 294.89, 595.11 210.33, 354.58 -1.96 M791.14 378.19 C651.25 253.57, 509.85 131.01, 354.77 -1.29 M791.04 373.71 C667.33 266.24, 545.76 158.78, 361.05 -1.19 M791.17 373.1 C700.34 293.05, 610.63 215.24, 360.82 -1.98 M791.56 367.37 C680.7 272.12, 571.61 175.65, 366.62 -1.69 M791.12 367.14 C668.28 259.33, 546.23 153.62, 367.26 -1.42 M790.77 362.29 C675.59 261.75, 559.38 160.62, 373.21 -1.24 M791.4 362.19 C642.27 233.84, 493.82 104.57, 373.57 -1.18 M791.06 356.51 C685.36 264.25, 578.35 170.61, 378.63 -2 M791.12 356.82 C670.21 252.03, 548.51 146.25, 378.54 -1.76 M791.49 351.74 C684.14 255.99, 574.21 162.06, 385.73 -1.59 M791.16 351.42 C681.84 257.07, 573.22 162.22, 385.62 -1.07 M790.32 345.43 C707.63 275.31, 625.82 203.49, 390.56 -0.96 M791.3 346.43 C645.56 220.22, 498.52 93.08, 390.72 -1.61 M790.81 340.72 C640.27 208.27, 486.1 75.61, 396.97 -1.83 M790.92 341.09 C713.44 272.2, 634.24 203.69, 397.03 -1.66 M791 335.4 C706.95 262.03, 623.79 191.05, 403.08 -1.75 M790.93 335.7 C650.54 213.5, 510.43 91.4, 403.57 -0.85 M791.08 330.17 C656.48 212.84, 520.54 95.46, 408.92 -1.16 M791.28 330.31 C714.92 262.98, 638.64 196.1, 409.04 -1.85 M791.89 326.27 C706.46 250.56, 620.22 176.28, 415.29 -1.62 M792 325.23 C682.72 229.77, 573.56 135.45, 415.94 -1.36 M790.55 319.25 C652.27 200.63, 515.35 80.45, 421.38 -1.06 M790.96 319.71 C715.32 255.25, 639.81 189.54, 421.97 -0.91 M791.4 314.5 C672.11 210.15, 551.5 106.3, 428.58 -1.64 M791.73 315.01 C649.53 192.04, 506.31 67.37, 427.44 -1.05 M790.66 309.52 C712.18 241.86, 631.43 172.04, 434.85 -0.64 M791.25 309.6 C667.78 203.54, 545.36 96.33, 434.24 -0.68 M791.4 304.55 C712.32 235.51, 630.86 164.95, 439.21 -2.06 M791.54 303.87 C699.37 224.48, 606.83 144.53, 439.97 -1.87 M790.33 298.99 C662.29 187.37, 535.32 75.57, 445.44 -1.9 M791.56 298.4 C708.71 227.33, 626.25 154.53, 446.43 -1.46 M791.78 293.82 C664.64 182.09, 538.99 73.8, 452.81 -1.78 M791.21 293.15 C678.26 195.12, 566.99 97.79, 452.99 -1.27 M792.08 287.98 C705.15 213.78, 617.05 137.19, 458.75 -0.83 M791.3 287.61 C688.58 199.13, 585.04 108.6, 458.73 -1.21 M791.78 282.43 C714.67 214.3, 638.62 148.75, 464.66 -1.73 M791.92 282.65 C670.94 177.9, 550.8 72.31, 465.03 -1.29 M791.56 276.71 C714.4 212.12, 639.49 145.61, 469.54 -0.55 M791.48 276.98 C708.25 203.47, 624.4 130.96, 470.22 -1.92 M790.92 273.05 C718.28 211.02, 646.62 148.37, 475.79 -2.04 M791.79 271.84 C667.05 162.86, 543.07 55.61, 477.08 -1.72 M790.02 266.42 C669.8 159.43, 545.56 53.74, 482.55 -0.56 M791.34 266.66 C671.71 161.77, 551.36 57.12, 483.23 -0.74 M792.54 261.4 C730.04 208.77, 670.52 157.07, 489.82 -1.63 M791.24 261.43 C682.12 165.89, 572.53 70.8, 489.07 -0.85 M790.06 256.03 C685.68 166.54, 581.99 74.2, 494.66 -1.97 M790.69 255.65 C704.93 181.49, 620.25 107.36, 495.72 -1.27 M791.62 252.15 C697.17 171.45, 604.59 88.79, 501.57 -0.57 M791.89 250.74 C710.69 181.01, 631.28 112.14, 501.1 -2.03 M789.88 245.27 C713.23 177.75, 632.91 107.73, 506.4 -2.23 M790.76 245.72 C694.93 160.4, 597.6 77.31, 507.1 -1.72 M791.38 240.18 C734.3 192.67, 677.62 142.9, 514.12 -1.01 M791.23 240.47 C716.24 173.93, 639.34 107.14, 513.63 -1.19 M791 233.6 C725.14 176.38, 661.07 122.41, 518.02 -1.21 M791.31 235.14 C731.28 182.11, 671 130.5, 519.47 -1.11 M791.02 230.14 C690.25 142.41, 588 52.6, 526.09 -1.3 M791.32 229.77 C700.03 151.54, 608.66 71.56, 526.29 -1.48 M789.82 224.13 C717.99 160.2, 646.98 98.68, 531.72 -2.32 M790.92 223.79 C738.77 179.99, 687.7 134.33, 531.89 -1.94 M791.53 218.58 C726.62 162.77, 665.68 110.68, 536.92 -0.24 M791.15 219.29 C738.97 172.09, 684.19 126.01, 538.06 -1.76 M791.63 214.77 C711.23 143.08, 633.41 74.88, 543.15 -0.21 M790.23 214.22 C731.7 162.96, 673.11 112.5, 543.88 -1.43 M791.82 207.47 C722.24 148.48, 651.41 86.87, 550.57 -1.64 M790.78 207.97 C731.13 157.2, 672.36 105.46, 549.88 -0.82 M791.83 204.87 C725.67 143.66, 656.67 85.62, 555.45 -0.23 M790.99 203.59 C722.87 146.38, 656.76 88.16, 555.97 -0.93 M789.81 198.18 C732.45 144.87, 671.9 94.15, 561.35 -1.45 M790.88 197.79 C709.85 126.36, 629.36 55.27, 562.33 -1.69 M792.95 194.35 C712.51 121.51, 629.35 51, 569.46 -0.02 M790.86 192.39 C706.14 117.88, 620.22 43.48, 568.16 -1.76 M789.75 186.71 C743.34 146.16, 695.35 103.46, 575.37 -2.12 M790.63 187.6 C726.21 131.97, 662.95 76.26, 574.12 -0.46 M791.06 183.5 C723.07 120.97, 653.34 59.05, 581.33 -1.68 M791.42 182.53 C712.94 111.48, 633.27 42.64, 580.23 -1.26 M792.54 176.79 C730.43 122.77, 670.38 72.5, 586.24 -2.56 M791.24 176.41 C716.01 112.19, 642.87 47.62, 587.07 -1.04 M791.82 171.62 C742.52 127.44, 691.83 86.24, 593.65 -0.76 M791.47 172.24 C713.32 102.49, 635.11 35.57, 591.78 -1.62 M790.12 166.76 C730.21 114.59, 673.43 65.28, 598.68 -1.24 M790.75 165.82 C734.83 118.33, 679.37 70.16, 597.94 -1.74 M791.7 162.56 C726.33 104.92, 660.34 47.34, 605.9 -2.47 M791.59 161.84 C726.98 105.8, 662.65 50.01, 605.45 -1.02 M792.43 156.94 C734.43 106.4, 674.42 52.21, 612.09 -0.82 M790.96 154.72 C726.4 98.1, 661.24 40.37, 609.99 -1.47 M791.62 150.23 C724.65 92.36, 658.83 35.24, 615.86 -0.66 M791.83 149.97 C746.48 113.21, 702.99 74.6, 616.62 -1.68 M790.77 144.8 C729.88 90.34, 666.83 36.66, 622.18 -2.91 M790.31 144.75 C741.39 99.98, 692.95 57.52, 622 -1.62 M792.5 139.68 C752.12 104.26, 713.04 71.01, 629.46 -1.41 M790.81 139.39 C740.41 95.15, 689.03 51.38, 628.5 -1.82 M792.08 133.42 C748.74 96.08, 707.16 61.88, 637.18 -1.82 M791.34 134.61 C735.24 83.6, 678.54 35.7, 636.32 -1.42 M789.66 129.07 C744.38 90.68, 700.82 49.93, 642.65 -0.87 M791.82 129.58 C756.97 96.92, 720.47 65.44, 641.99 -0.61 M790.19 123.19 C737.19 76.33, 681.43 29.08, 649.35 -2.84 M791.26 124.17 C754.69 91.24, 717.26 60.84, 648.08 -1.21 M789.38 117.87 C740.56 74.98, 689.96 30.81, 652.83 0.27 M791.25 118.8 C748.34 79.91, 704.08 43.31, 652.95 -0.73 M792.59 113.42 C747.39 72.65, 701.76 34.56, 661.18 -1.98 M791.44 113.52 C761.73 86.98, 729.87 59.85, 659.06 -1.18 M792.42 109.15 C756.48 78.03, 724.1 46.29, 667.43 -1.56 M790.39 107.07 C751.96 75.45, 711.77 40.7, 665.52 -1 M792.15 103.68 C761.67 78.93, 732.59 50.72, 671.19 -2.47 M791.34 102.37 C743.52 61.36, 697.75 21.3, 671.14 -1.41 M791.18 95.69 C762.74 73.2, 731.62 44.13, 678.41 -1.21 M790.97 97.42 C766.41 76.01, 740.8 53.95, 678.5 -1.69 M793.22 92.98 C758.13 63.66, 725.94 33.71, 683.51 0.23 M791.96 91.48 C753.19 58.67, 715 26.18, 683.43 -2.06 M791.94 85.9 C764.99 61.96, 737.48 37.8, 688.84 -2.9 M792.02 86.75 C761.52 61.59, 731.17 35.31, 690.81 -1.71 M790.72 82.98 C757.17 51.49, 719.56 20.86, 694.87 0.97 M791.89 81.05 C754.25 48.32, 715.9 15.53, 696.11 -1.67 M792.79 77.84 C755.68 44.41, 722.13 16.83, 703.87 -0.85 M790.91 76.93 C754.92 45.79, 721.13 13.69, 701.41 -2.16 M792.7 72.01 C774.03 56.37, 754.81 40.47, 709.61 0.29 M790.79 71.68 C764.77 47.43, 736.45 21.78, 708.44 -0.85 M789.7 65.24 C776.56 52.54, 757.19 36.62, 713.51 -0.65 M790.36 65.73 C770.66 47.34, 748.29 28.89, 715.11 -0.76 M791.27 62.35 C768.91 42.3, 751.04 22.33, 722.14 -1.64 M791.39 60.71 C775.19 45.79, 759.59 32.87, 720.27 -1.3 M790.46 55.49 C771.27 37.49, 753.73 22.15, 727.35 -0.55 M791.37 53.85 C772.66 39.76, 753.43 22.32, 726.28 -0.13 M793.41 50.99 C771.52 34.44, 753.65 19.09, 731.98 -1.66 M791.27 49.95 C773.2 33.8, 757.23 18.8, 732 -1.48 M792.71 43.63 C772.51 27.36, 756.21 15.9, 737.56 -0.11 M790.32 43.89 C778.38 32.82, 765.01 21.29, 738.88 -1.45 M790.93 39.52 C778.76 27.39, 766.12 17.64, 746.48 -2.95 M791.81 38.58 C773.96 24.08, 758.74 9.31, 744.39 -0.9 M789.94 34.35 C776.68 21.24, 766.1 10.74, 749.44 -2.29 M791.87 33.41 C774.8 20.21, 759.47 5.41, 751.94 -1.49 M790.48 28.23 C779.71 20.5, 769.74 9.21, 755.61 -0.37 M791.25 28.23 C784.62 23.3, 777.58 16.05, 758.27 -0.52 M789.47 24 C780.76 13.56, 769.72 5.28, 764.35 -2.02 M790.06 23.85 C785.33 16.96, 777.68 10.7, 763.58 -2.27 M791.56 18.04 C785.06 13.27, 776.47 3.7, 770.9 -1.11 M791.62 17.95 C785.96 12.55, 779.06 7.56, 768.53 -0.32 M790.47 10.59 C787.09 8.68, 784.13 5.83, 774.53 0.41 M791.2 11.61 C785.57 8.41, 781.28 4.14, 774.74 -1.39 M792.11 8.09 C789.81 6.62, 786.4 2.49, 780.54 -2.21 M791.65 7.23 C788.16 4.7, 785.24 1.34, 781.61 -0.71 M790.76 1.25 C790.5 1.17, 789.21 0.66, 788.31 -1.21 M790.96 1.48 C789.95 0.77, 788.6 -0.57, 787.74 -0.88" stroke="#fab005" stroke-width="0.5" fill="none"/><path d="M0.52 0.46 C181.29 -0.37, 361.89 -0.19, 790.44 -0.15 M-0.17 -0.26 C158.39 -1.71, 317.27 -1.39, 790.23 0.2 M789.95 -0.74 C791.68 140.81, 792.02 283.38, 789.99 516.75 M789.89 0.39 C790.87 187.78, 790.78 376.04, 790.58 517.25 M790.15 516.88 C483.73 517.71, 176.91 518.48, -0.18 516.61 M789.92 517.15 C576.59 518.3, 363.11 518.13, -0.23 516.9 M0.78 516.84 C-0.28 337.13, -0.72 158.7, -0.59 -0.73 M0.19 516.93 C0.01 315.36, -0.2 113.79, 0.18 -0.19" stroke="#000000" stroke-width="1" fill="none"/></g><g stroke-linecap="round" transform="translate(158.77701742933016 177.56238329899702) rotate(0 338.8000030517578 32.40000915527344)"><path d="M0.01 -0.62 C223.26 0.16, 447.19 0.8, 678.33 -0.01 M-0.24 -0.31 C200.08 -0.52, 399.44 -0.31, 677.88 -0.3 M678.86 0.51 C677.17 19.61, 679.19 38.12, 679.22 64.82 M677.36 -0.86 C678.97 25.59, 678.19 50.07, 677.41 65.14 M677.12 64.78 C449.66 65.64, 220.62 66.31, 0.03 64.05 M677.86 64.54 C416.96 63.93, 156.1 63.87, 0 64.66 M-1.54 64.16 C1.05 53.71, -0.64 40.3, 1.21 1.64 M-0.46 65.15 C-0.79 39.12, -1.28 13.13, -0.32 0.39" stroke="#000000" stroke-width="1" fill="none"/></g><g stroke-linecap="round" transform="translate(158.17699606702547 258.71239245427046) rotate(0 338.8000030517578 114.00003051757812)"><path d="M-0.47 -0.62 C244.26 0.21, 487.13 -1.03, 678.23 0.5 M-0.07 -0.36 C190.41 0.22, 381.21 -0.27, 677.65 -0.01 M678.09 -1.06 C674.36 66.03, 674.53 131.58, 678.85 227.3 M677.46 0.23 C678.11 64.91, 678.6 129.05, 677.04 227.97 M677.32 228.2 C536.13 228.24, 393.3 228.05, 0.18 228.42 M677.91 228.21 C526.09 228.13, 374.71 228.58, 0.28 228.17 M0.61 228.9 C-1.67 166.71, -3.02 106.27, 1.19 0.64 M-0.26 228.83 C0.69 157.01, 0.09 85.74, -0.57 0.28" stroke="#000000" stroke-width="1" fill="none"/></g><g stroke-linecap="round" transform="translate(157.57698996350985 504.4123741437236) rotate(0 338.8000030517578 32.40000915527344)"><path d="M-0.3 -0.52 C146.56 2.09, 294 3.12, 677.46 -0.41 M0.21 0.31 C186.72 -1.23, 373.77 -1.33, 677.54 -0.33 M676.06 1.45 C676.95 23.84, 675.88 46.79, 677 65.6 M677.58 -0.16 C678.15 17.65, 677.69 34.74, 677.52 65.55 M677.84 64.44 C502.98 64.77, 327.64 63.61, -0.35 64.88 M677.62 64.66 C538.78 66.16, 399.1 66.22, -0.39 64.48 M1.19 66.51 C-0.88 42.57, 1.89 21.43, -1.58 0.12 M-0.66 64.24 C-0.21 38.18, 0.68 12.54, 0.9 -0.54" stroke="#000000" stroke-width="1" fill="none"/></g><g stroke-linecap="round" transform="translate(171.17701132581453 275.41238940251264) rotate(0 46 42)"><path d="M-0.45 1.7 C33.26 -1.09, 66.27 2.44, 92.62 -0.88 M-0.88 0.88 C20.77 0.9, 42.56 0.68, 92.75 -0.95 M91.47 -0.48 C94.35 27.19, 93.47 54.7, 92.6 83.36 M91.44 -0.11 C91.95 26.7, 93.15 53.78, 92.69 84.36 M93.51 84.52 C73.91 82.11, 50.96 83.95, -0.78 82.64 M92.13 84.04 C69.9 84.99, 49.64 84.53, -0.78 84.57 M-1.63 82.13 C1.54 55.59, 1.38 22.99, 0.95 -0.84 M0.83 83.59 C1.25 64.09, 1.55 44.59, -0.73 -0.85" stroke="#000000" stroke-width="1" fill="none"/></g><g stroke-linecap="round" transform="translate(279.4769991187833 276.21239245427046) rotate(0 46 42)"><path d="M-1.91 -1.3 C22.35 1.68, 49.23 0.9, 93.05 -0.71 M-0.33 -0.03 C31.15 -0.19, 63.88 0.31, 92.26 -0.3 M92.53 -1.55 C90.23 22.4, 90.61 41.81, 90.98 82.95 M91.45 0.84 C92.62 19.96, 90.78 38.28, 92.41 84.54 M91.05 83.85 C59.68 84.16, 32.7 84.41, 1.76 82.72 M92.19 84.28 C73.65 83.1, 53.19 83.59, -0.63 84.92 M0.16 85.52 C1.17 64.57, 0.75 41.88, -1.02 -0.9 M0.3 83.94 C0.71 56.41, -0.04 30.43, -0.9 -0.27" stroke="#000000" stroke-width="1" fill="none"/></g><g stroke-linecap="round" transform="translate(392.3270052222989 274.81239092839155) rotate(0 46 42)"><path d="M-0.88 -1.98 C35.96 -0.62, 70.02 -0.59, 92.5 0.1 M-0.98 -0.49 C25.98 0.33, 52.59 1.04, 91.6 -0.93 M91.69 0.49 C94.59 28.95, 91.66 62.83, 92.72 83.15 M92.03 -0.82 C92.06 25.63, 91.88 52.48, 92.5 84.26 M93.42 85.98 C61.74 83.85, 28.43 86.22, 0.61 82.48 M92.79 83.52 C62.18 83.69, 32.55 82.97, -0.28 83.6 M-0.59 82.55 C1.33 52.1, 0.42 16.36, 1 -0.59 M-0.74 83.12 C1.59 52.74, 0.08 20.68, 0.45 0.21" stroke="#000000" stroke-width="1" fill="none"/></g><g stroke-linecap="round" transform="translate(500.62699301526766 275.61239398014936) rotate(0 46 42)"><path d="M1.39 0.25 C37.19 1.19, 73.13 1.01, 91.65 -1.1 M-0.01 -0.46 C20.36 0.71, 39.11 -0.48, 92.65 0.82 M93.9 -1.7 C90.84 25.59, 92.59 47.28, 92.14 85.67 M91.36 -0.17 C91.2 24, 92.52 46.52, 92.43 84.7 M93.34 83.22 C57.74 86.5, 24.83 83.39, 0.44 83.13 M91.79 84.05 C67.79 82.89, 43.76 83.16, 0.92 84.22 M1.52 85.03 C0.85 53.93, 1.25 26.82, 1.61 -2 M0.75 84.72 C-0.13 51.2, 1.07 17.34, -0.49 -0.77" stroke="#000000" stroke-width="1" fill="none"/></g><g stroke-linecap="round" transform="translate(612.7520082740567 275.1123901654521) rotate(0 46 42)"><path d="M0.59 1.67 C21.34 -0.97, 41.82 0.72, 93.15 -0.9 M-0.12 -0.53 C24.89 -0.63, 49.04 -0.76, 91.7 0.73 M93.89 1.91 C91.86 31.9, 92.25 66.15, 90.68 83.54 M92.92 0.75 C93.13 17.96, 92.61 34.45, 92.55 83.59 M90.78 82.38 C66.81 84.3, 43.05 83.1, 1.69 85.3 M91.31 84.22 C64.35 83.43, 35.27 83.55, 0.68 83.66 M-1.47 82.69 C1.1 63.87, -0.21 41.9, -2 0.38 M0.73 83.41 C0.25 54.99, -0.9 26.07, 0.56 0.45" stroke="#000000" stroke-width="1" fill="none"/></g><g stroke-linecap="round" transform="translate(721.0519960670255 275.9123932172099) rotate(0 46 42)"><path d="M1.02 -0.32 C35.26 0.6, 69.33 -1.67, 91.42 -1.43 M-0.06 -0.22 C30.82 0.14, 63.07 1.22, 92.88 -0.98 M92.68 -0.72 C93.86 29.53, 91.47 56.76, 90.21 85.52 M92.49 0.26 C92.74 22.11, 93.32 45.7, 91.59 84.06 M90.62 85.13 C71.39 83.19, 55.11 84.56, 0.14 83.73 M92.61 83.28 C62.63 83.6, 34.39 83.86, -0.47 83.2 M0.43 85.15 C-0.27 56.48, -1.38 28.42, 0.93 0.96 M0.65 84.09 C-1.11 66.5, -0.06 48.89, 0.58 0.49" stroke="#000000" stroke-width="1" fill="none"/></g><g stroke-linecap="round" transform="translate(185.97699911878328 183.212400083665) rotate(0 26 26)"><path d="M29.5 1.06 C34.8 1.51, 42.37 4.28, 45.97 8.42 C49.56 12.55, 51.14 20.17, 51.06 25.87 C50.99 31.57, 48.63 38.28, 45.49 42.64 C42.36 46.99, 37.59 50.86, 32.26 51.98 C26.93 53.1, 18.52 52.03, 13.53 49.37 C8.53 46.71, 4.45 41.12, 2.31 36.03 C0.17 30.94, -0.97 24.02, 0.67 18.83 C2.31 13.65, 6.76 7.89, 12.15 4.9 C17.54 1.91, 29.12 1.4, 33.02 0.89 C36.93 0.37, 35.68 1.24, 35.58 1.79 M31.83 -0.22 C36.98 0.29, 42.45 4.13, 46.02 8.34 C49.59 12.55, 53.33 19.07, 53.25 25.04 C53.18 31, 49.41 39.81, 45.56 44.13 C41.71 48.46, 35.69 50.05, 30.15 51 C24.6 51.95, 17.04 52.65, 12.28 49.84 C7.52 47.03, 3.39 39.77, 1.58 34.13 C-0.24 28.49, -0.52 21.06, 1.4 16.01 C3.31 10.96, 7.95 6.28, 13.05 3.82 C18.15 1.37, 29.24 1.82, 32.01 1.28 C34.79 0.73, 30.04 0.13, 29.69 0.56" stroke="#000000" stroke-width="1" fill="none"/></g><g transform="translate(193.97699911878328 199.212400083665) rotate(0 18 10)"><text x="18" y="14" font-family="Virgil, Segoe UI Emoji" font-size="16px" fill="#000000" text-anchor="middle" style="white-space: pre;" direction="ltr">Logo</text></g><g stroke-opacity="0.5" fill-opacity="0.5" transform="translate(439.57703573987703 191.71242297184858) rotate(0 47 17.5)"><text x="0" y="25" font-family="Virgil, Segoe UI Emoji" font-size="28px" fill="#000000" text-anchor="start" style="white-space: pre;" direction="ltr">Header</text></g><g transform="translate(649.377084568002 199.11238635075483) rotate(0 19 10)"><text x="0" y="14" font-family="Virgil, Segoe UI Emoji" font-size="16px" fill="#000000" text-anchor="start" style="white-space: pre;" direction="ltr">Home</text></g><g transform="translate(719.776986911752 200.11237109196577) rotate(0 49 10)"><text x="0" y="14" font-family="Virgil, Segoe UI Emoji" font-size="16px" fill="#000000" text-anchor="start" style="white-space: pre;" direction="ltr">Contact_Us</text></g><g stroke-opacity="0.5" fill-opacity="0.5" transform="translate(189.17691977308016 312.11237109196577) rotate(0 28 6.5)"><text x="0" y="9" font-family="Virgil, Segoe UI Emoji" font-size="9.660956101190475px" fill="#000000" text-anchor="start" style="white-space: pre;" direction="ltr">Restaurant</text></g><g stroke-opacity="0.5" fill-opacity="0.5" transform="translate(295.9769991187833 314.812383298997) rotate(0 28 6.5)"><text x="0" y="9" font-family="Virgil, Segoe UI Emoji" font-size="9.660956101190475px" fill="#000000" text-anchor="start" style="white-space: pre;" direction="ltr">Restaurant</text></g><g stroke-opacity="0.5" fill-opacity="0.5" transform="translate(410.9769991187833 314.812383298997) rotate(0 28 6.5)"><text x="0" y="9" font-family="Virgil, Segoe UI Emoji" font-size="9.660956101190475px" fill="#000000" text-anchor="start" style="white-space: pre;" direction="ltr">Restaurant</text></g><g stroke-opacity="0.5" fill-opacity="0.5" transform="translate(516.9769991187833 313.812383298997) rotate(0 28 6.5)"><text x="0" y="9" font-family="Virgil, Segoe UI Emoji" font-size="9.660956101190475px" fill="#000000" text-anchor="start" style="white-space: pre;" direction="ltr">Restaurant</text></g><g stroke-opacity="0.5" fill-opacity="0.5" transform="translate(630.9769991187833 311.812383298997) rotate(0 28 6.5)"><text x="0" y="9" font-family="Virgil, Segoe UI Emoji" font-size="9.660956101190475px" fill="#000000" text-anchor="start" style="white-space: pre;" direction="ltr">Restaurant</text></g><g stroke-opacity="0.5" fill-opacity="0.5" transform="translate(737.9769991187833 309.812383298997) rotate(0 28 6.5)"><text x="0" y="9" font-family="Virgil, Segoe UI Emoji" font-size="9.660956101190475px" fill="#000000" text-anchor="start" style="white-space: pre;" direction="ltr">Restaurant</text></g><g stroke-linecap="round" transform="translate(174.0395067481778 378.21238101017866) rotate(0 46 42)"><path d="M-1.64 -1.8 C24.58 1.02, 48.46 -0.48, 91.44 -0.6 M0.11 -0.2 C21.86 -0.02, 44.04 -0.01, 91.5 -0.29 M91.26 1.27 C90.04 28.53, 93.04 54.99, 93.85 83.45 M91.54 0.96 C91.67 18.76, 91.66 35.38, 92.69 83.93 M92.36 82.67 C57.97 83.82, 27.37 82.87, 1.95 83.31 M91.53 83.99 C63.45 83.7, 35.3 83.75, -0.48 84.31 M0.63 85.44 C-2.44 49.29, -1.01 18.61, 1.4 1.66 M-0.55 83.31 C1.44 55.86, -0.2 27.71, -0.38 0.07" stroke="#000000" stroke-width="1" fill="none"/></g><g stroke-linecap="round" transform="translate(283.50161882060877 379.0123840619365) rotate(0 46 42)"><path d="M-1.8 1.28 C28.63 2.61, 54.19 0.2, 91.4 -1.14 M-0.2 -0.49 C26.96 -0.75, 54.08 -0.6, 91.71 0.36 M93.27 -1.13 C92.07 18.75, 90.3 35.62, 91.45 82.3 M92.96 -0.24 C92.66 24.01, 91.2 49.21, 91.93 84.58 M90.67 82.9 C64.21 85.38, 35.72 86.11, -0.69 84.08 M91.99 83.41 C70.9 82.79, 50.24 83.09, 0.31 84.99 M1.44 82.28 C-0.56 51.32, 2.3 20.63, 1.66 0.65 M-0.69 84.9 C0.29 63.39, 0.07 43.86, 0.07 -0.6" stroke="#000000" stroke-width="1" fill="none"/></g><g stroke-linecap="round" transform="translate(395.1895006446622 377.61238253605757) rotate(0 46 42)"><path d="M1.28 1.57 C34.95 0.9, 65.64 0.23, 90.86 -0.11 M-0.49 -0.16 C25.53 0.02, 51.84 -0.11, 92.36 -0.99 M90.87 0.29 C93.56 21.5, 93.54 45.41, 90.3 83.78 M91.76 0.69 C91.36 24.1, 92.3 49.67, 92.58 83.99 M90.9 83.75 C64.95 82.2, 37.42 82.7, 0.08 82.5 M91.41 83.6 C62.55 83.64, 34.19 84.3, 0.99 84.86 M-1.72 82.82 C-0.56 66.71, 1.14 47.73, 0.65 -1.27 M0.9 83.79 C-0.26 63.38, 0.09 43.69, -0.6 0.02" stroke="#000000" stroke-width="1" fill="none"/></g><g stroke-linecap="round" transform="translate(503.48948843763094 378.4123855878154) rotate(0 46 42)"><path d="M1.57 1.85 C20.11 -1.15, 39.48 -1.73, 91.89 -0.31 M-0.16 -0.65 C28.43 -0.06, 56.88 0.81, 91.01 -0.26 M92.29 1.87 C91.05 23.93, 91.98 42.45, 91.78 83.92 M92.69 -0.25 C92.04 22.04, 92.74 43.27, 91.99 84.07 M91.75 85.21 C61.54 85.44, 32.78 83.57, -1.5 84.23 M91.6 83.22 C68.34 82.98, 45.7 84.45, 0.86 83.26 M-1.18 83.7 C1.07 57.55, 1.05 28.94, -1.27 -1.19 M-0.21 83.27 C0.15 63.08, 0.65 42.31, 0.02 0.27" stroke="#000000" stroke-width="1" fill="none"/></g><g stroke-linecap="round" transform="translate(615.61450369642 377.9123817731181) rotate(0 46 42)"><path d="M1.85 0.07 C18.76 -1.32, 37.5 -0.83, 91.69 0.21 M-0.65 -0.16 C25.3 -0.14, 51.97 -0.84, 91.74 -0.37 M93.87 -1.48 C93.38 30, 89.83 60.87, 91.92 83.08 M91.75 -0.77 C92.49 33.23, 92.38 66.59, 92.07 84.18 M93.21 82.81 C72.47 83.2, 49.12 82.39, 0.23 83.07 M91.22 83.65 C63.98 83.94, 37.92 84.48, -0.74 84.32 M-0.3 85.67 C2.12 54.42, 1.37 20.27, -1.19 -1.11 M-0.73 83.57 C-1.14 64.63, -1.36 45.13, 0.27 -0.87" stroke="#000000" stroke-width="1" fill="none"/></g><g stroke-linecap="round" transform="translate(723.9144914893888 378.7123848248759) rotate(0 46 42)"><path d="M0.07 -0.56 C32.87 -1.99, 66.83 -1.16, 92.21 -0.39 M-0.16 -0.5 C22.84 0.96, 45.27 0.33, 91.63 0.64 M90.52 1.85 C91.57 18.76, 91.9 40.83, 91.08 85.93 M91.23 0.69 C92.51 23.76, 92.57 46.44, 92.18 83.33 M90.81 85.95 C68.79 84.63, 45.46 84.79, -0.93 83.99 M91.65 83.52 C70.09 84.27, 48.42 82.54, 0.32 84.72 M1.67 85.4 C2.15 66.67, -0.77 46.84, -1.11 -1.37 M-0.43 83.62 C0.25 50.61, 0.2 18.7, -0.87 0.99" stroke="#000000" stroke-width="1" fill="none"/></g><g stroke-opacity="0.5" fill-opacity="0.5" transform="translate(192.03941519544344 414.9123626996318) rotate(0 28 6.5)"><text x="0" y="9" font-family="Virgil, Segoe UI Emoji" font-size="9.660956101190475px" fill="#000000" text-anchor="start" style="white-space: pre;" direction="ltr">Restaurant</text></g><g stroke-opacity="0.5" fill-opacity="0.5" transform="translate(298.83949454114656 417.61237490666304) rotate(0 28 6.5)"><text x="0" y="9" font-family="Virgil, Segoe UI Emoji" font-size="9.660956101190475px" fill="#000000" text-anchor="start" style="white-space: pre;" direction="ltr">Restaurant</text></g><g stroke-opacity="0.5" fill-opacity="0.5" transform="translate(413.83949454114656 417.61237490666304) rotate(0 28 6.5)"><text x="0" y="9" font-family="Virgil, Segoe UI Emoji" font-size="9.660956101190475px" fill="#000000" text-anchor="start" style="white-space: pre;" direction="ltr">Restaurant</text></g><g stroke-opacity="0.5" fill-opacity="0.5" transform="translate(519.8394945411466 416.61237490666304) rotate(0 28 6.5)"><text x="0" y="9" font-family="Virgil, Segoe UI Emoji" font-size="9.660956101190475px" fill="#000000" text-anchor="start" style="white-space: pre;" direction="ltr">Restaurant</text></g><g stroke-opacity="0.5" fill-opacity="0.5" transform="translate(633.8394945411466 414.61237490666304) rotate(0 28 6.5)"><text x="0" y="9" font-family="Virgil, Segoe UI Emoji" font-size="9.660956101190475px" fill="#000000" text-anchor="start" style="white-space: pre;" direction="ltr">Restaurant</text></g><g stroke-opacity="0.5" fill-opacity="0.5" transform="translate(740.8394945411466 412.61237490666304) rotate(0 28 6.5)"><text x="0" y="9" font-family="Virgil, Segoe UI Emoji" font-size="9.660956101190475px" fill="#000000" text-anchor="start" style="white-space: pre;" direction="ltr">Restaurant</text></g><g stroke-opacity="0.5" fill-opacity="0.5" transform="translate(435.9769991187833 517.812383298997) rotate(0 45.5 17.5)"><text x="0" y="25" font-family="Virgil, Segoe UI Emoji" font-size="28px" fill="#000000" text-anchor="start" style="white-space: pre;" direction="ltr">Footer</text></g><g stroke-linecap="round" transform="translate(349.6148626322898 68.59958525252927) rotate(0 158.39999389648438 13.20001220703125)"><path d="M0 0 C0 0, 0 0, 0 0 M0 0 C0 0, 0 0, 0 0 M0.35 6.19 C2.09 4.68, 2.81 1.63, 5.08 0.28 M-0.63 6.1 C0.93 4.96, 3.21 2.69, 4.78 0.11 M0.72 13.54 C1.26 8.02, 6.62 6.39, 9.22 1.35 M0.86 11.9 C4.21 8.19, 7.3 3.58, 10.98 0.61 M-1.88 18.47 C5.7 12.06, 9.76 6.35, 15.8 -0.18 M-0.16 19.26 C3.55 14.2, 7.6 10.31, 16.26 0.67 M0.93 24.48 C7.64 14, 15.38 4.23, 22.84 -1.32 M1.1 24.85 C5.62 16.31, 13.31 9.83, 21.59 0.44 M2.72 29.33 C7.31 21.35, 17.65 13.22, 24.44 0.08 M2.69 28.53 C7.85 21.9, 14.96 13.58, 27.06 -0.67 M8.6 29.33 C17.53 17.61, 25.06 8.99, 31.45 0.94 M6.82 27.87 C16 19.98, 22.53 10.42, 31.15 -0.51 M11.78 29.71 C19.92 18.86, 25.9 13.2, 37.47 0.76 M13.59 27.44 C18.79 19.73, 25.18 13.16, 37.3 -0.15 M18.19 26.96 C25.82 17.59, 36.67 7.3, 41.63 -1 M17.8 27.51 C28 15.84, 36.94 5.23, 41.8 0.83 M23.57 30.07 C32.32 18.36, 42.06 6.29, 46.92 -1.44 M23.15 28.66 C29.51 21.81, 34.52 15.11, 48.36 0.19 M29.63 28.71 C36.13 15.7, 45.68 6.73, 54.98 -0.8 M28.54 28.22 C32.56 22.14, 39.15 16.92, 54 -0.28 M35.57 26.89 C40.2 20.79, 44.78 17.67, 56.44 1.01 M32.87 27.38 C39.68 21.51, 43.61 16.71, 57.56 1.12 M39.77 26.71 C45.44 22.06, 50.01 15, 65.73 1.77 M38.73 29.19 C45.02 21.86, 52.26 14.16, 63.65 0.71 M45.88 26.49 C51.31 18.6, 59.87 13.35, 67.36 0.48 M43.73 28.1 C51.69 19.69, 59.09 11.31, 69.12 -0.74 M49.16 28.24 C55.79 18.55, 61.86 12.27, 74.78 -1.27 M48.98 27.74 C55.5 19.63, 63.58 12.36, 75.05 0.73 M55.28 27.05 C65.09 18.1, 73.77 7.53, 80.66 0.19 M55.08 27.67 C62.69 19.79, 72.37 9.81, 79.19 0.06 M58.65 26.62 C66.89 18.7, 75.94 11.56, 83.69 -0.01 M60.53 29.24 C65.12 22.36, 70.24 15.8, 85.94 -0.01 M65.2 28.59 C73.04 19.45, 80.68 11.89, 90.95 0.21 M65.74 28.26 C74.27 16.6, 83.48 7.47, 90.83 0.78 M70.74 28.05 C78.69 16.06, 90.73 9.14, 96.67 -0.73 M71.49 28.9 C78.49 19.12, 84.4 12.27, 96.47 -0.95 M75.73 26.95 C83.78 18.06, 94.83 4.64, 100.55 -0.57 M76.91 28.36 C82.5 21.52, 88.89 15.09, 101.04 -0.47 M79.6 29.56 C90.48 17.56, 98.18 9.92, 106.59 0.15 M81.92 28.76 C89.27 19.9, 97.35 9.99, 106.23 -0.19 M87.6 27.85 C95.39 18.15, 99.33 12.33, 109.38 1.61 M87.24 27.8 C94.44 17.6, 103.97 8.99, 111.74 0.22 M93.06 29.02 C101.02 19.41, 108.97 11.5, 116.31 -1.18 M92.81 28.67 C101.78 18.16, 110.38 6.3, 116.56 1.23 M96.23 28.83 C108.22 16.48, 116.21 6.17, 121.06 1.34 M97.79 28.73 C103.62 19.3, 112 12.57, 122.75 -0.39 M102.58 27.15 C108.39 20.74, 112.88 15.14, 127.32 -0.99 M103.04 27.34 C111.73 17.65, 119.99 7.66, 126.19 -0.65 M109.65 29.29 C118.99 18.66, 127.25 5.72, 132.85 -1.94 M109.05 28.62 C113.48 21.69, 118.02 15.72, 132.84 0.28 M113.31 29.51 C124.8 18.17, 132.45 7.84, 137.82 -1.39 M112.44 27.28 C122.9 17.24, 131.51 6.02, 138.3 0.8 M118.59 28.44 C126.07 17.99, 134.84 9.55, 141.64 -1.95 M117.91 27.3 C126.45 18.95, 134.92 10.75, 142.69 -0.35 M122.02 28.51 C132.1 16.91, 140.68 11.04, 147.28 0.56 M124.74 27.83 C129.19 21.72, 134.92 16.15, 148.17 0.76 M130.41 27.38 C137.09 19.36, 140.56 14.59, 154.03 0.44 M128.72 27.89 C137.14 19.26, 145.38 9.8, 153.89 -1.05 M135.18 29.4 C142.34 18.76, 153.8 7.09, 157.86 -0.35 M134.62 28.19 C140.93 21.5, 147.76 12.86, 159.48 0.78 M138.49 27.78 C146.81 18.47, 155.46 13.19, 164.23 -0.82 M139.55 28.62 C148.2 19.73, 156.91 9.84, 163.98 0.25 M146.87 28.28 C149.22 22.21, 155.15 15.59, 168.37 0.53 M144.66 28.34 C153.5 18.29, 160.08 9.03, 169.34 -0.3 M150.8 26.9 C158.67 18.09, 163.74 9.85, 176.13 1.1 M149.91 28.77 C157.71 20.48, 164.19 11.82, 175.39 -0.55 M156.86 30.06 C163.01 17.42, 173.63 8.08, 180.26 -0.31 M156.37 28.12 C162.14 20.69, 170.36 11.58, 179.28 0.71 M160.04 28.09 C168.68 16.85, 180.89 5.04, 185.26 -0.15 M161.71 28.21 C166.39 21.01, 173.01 13.04, 186.49 -0.74 M164.56 26.55 C173.28 17.9, 181.23 11.19, 191.66 -0.56 M167.17 28.2 C172.01 21.22, 175.9 15.76, 190.26 0.32 M172.19 27.81 C177.45 21.76, 179.69 16.51, 196.83 -2.07 M170.98 29.4 C179.01 19.71, 188.31 8.5, 196.57 0.24 M175.04 26.36 C183.89 22.76, 189.21 13.44, 199.33 1.96 M177.41 27.05 C183.25 20.79, 189.49 12.4, 201.64 -0.63 M183.91 30.36 C192.4 19.72, 200.96 5.31, 207.69 0.68 M182.16 29.11 C189.51 19.77, 198.01 9.15, 206.85 -0.23 M189.04 28.97 C198.01 18.18, 207.34 7.83, 212.71 -0.73 M187.38 28 C197.64 17.91, 204.79 7.49, 212.23 0.03 M192.49 29.87 C198.83 19.02, 208.27 13.5, 216.33 -1.7 M193.11 27.45 C201.56 18.07, 208.1 10.45, 217.44 -0.95 M196.92 26.67 C203.41 21.48, 209.86 12.26, 223.89 -0.78 M198.26 28.19 C206.53 19.11, 214.72 7.81, 223.24 0.8 M201.91 28.34 C213.82 18.1, 223.25 6.99, 228.94 -0.2 M204.1 28.85 C211.24 18.55, 219.8 10.35, 228.42 0.12 M208.74 26.64 C214.59 20.62, 220.32 14.37, 233.6 -0.48 M209.18 27.6 C218.02 17.22, 226.7 5.26, 233.32 -0.5 M212.77 29.59 C223.82 17.08, 231.47 9.78, 236.66 -0.18 M214.84 29.07 C222.34 20.3, 229.12 10.74, 238.1 -0.4 M220.19 28.86 C225.17 19.18, 234.15 13.58, 245.24 1.72 M220.16 28.03 C229.53 18.12, 238.28 7.14, 243.52 0.28 M224.36 29.28 C231.61 18.16, 238.84 10.06, 248.3 1.57 M225.45 28.21 C231.11 19.23, 238.03 11.07, 248.69 0.67 M230.62 28.19 C234.96 22.21, 244.13 12.23, 254.88 1.19 M231.18 28.09 C239.22 16.69, 248.7 6.14, 254.34 0.63 M236.6 28.94 C240.42 20.51, 248.84 12.72, 260.33 -0.64 M235.49 27.68 C242.23 20.92, 247.59 13.68, 259.35 0.6 M241.04 28.31 C247.5 20.18, 253.24 15.08, 265.21 1.19 M241.11 28.26 C249.97 19.21, 257.56 9.14, 264.67 0.35 M244.08 29.93 C249.69 22.44, 258.64 15.93, 269.54 1.61 M244.91 27.23 C253.04 19.61, 259.48 11.16, 269.82 0.75 M252.11 27.74 C262.79 16.89, 269.76 6.46, 275.62 -1.22 M250.76 27.82 C256.58 22.02, 260.49 17.06, 274.85 0.57 M258.04 27.44 C263.2 20.68, 268.57 13.5, 282.37 1.55 M257.11 27.94 C265.32 16.59, 276.23 5.31, 280.78 0.28 M261.5 26.63 C270.95 15.89, 279.39 5.55, 288.12 -1.12 M261.2 28.64 C270.7 17.69, 278.39 8.75, 285.62 0.78 M268.38 28.53 C271.81 23.53, 278.43 14.8, 292.93 -0.71 M267.9 27.19 C273.06 20.21, 278.6 13.96, 290.8 -0.79 M272.49 29.67 C283.28 18.94, 290.88 5.62, 297.4 0.27 M271.39 29.14 C277.36 22.81, 282.57 15.97, 297.15 -0.25 M277.66 26.07 C284.8 21.09, 294.1 10.68, 300.97 -0.24 M278.52 27.74 C287.79 16.97, 295.62 7.32, 301.39 -0.63 M284.07 28.69 C287.96 22.02, 294.33 15.31, 308.78 1.55 M283.24 27.85 C288.77 20.13, 295.31 12.7, 308.05 0.61 M287.08 28.82 C295.92 21.56, 301.44 11.64, 313.92 -1.26 M288.62 28.63 C294.42 22.27, 298.29 15.81, 311.98 -0.6 M291.53 29.59 C301.14 19.58, 306.4 12.73, 315.61 -0.08 M293.25 29.37 C302.64 18.21, 309.15 10.35, 317.66 0.56 M298.52 27.34 C305.28 21.9, 311.16 13.38, 318.92 7.65 M299.28 28.25 C303.59 20.62, 311.12 15.68, 317.02 6.61 M303.8 27.12 C306.5 25.45, 311.13 18.46, 317.35 14.26 M304.83 28.14 C307.21 24.27, 309.32 21.48, 317.25 12.95 M308.94 28.02 C310.77 26.28, 314.05 24.48, 317.81 19.83 M309.83 27.58 C311.16 25.59, 312.84 23.77, 317.85 18.84 M314.36 28.04 C315.5 26.9, 316.78 26.07, 317.06 25.07 M314.72 28.14 C315.45 27.07, 316.6 25.93, 317.33 25.31" stroke="#fab005" stroke-width="0.5" fill="none"/><path d="M-0.05 0.52 C100.59 0.6, 200.22 0.61, 317.25 0.6 M-0.39 0.56 C74.74 -0.17, 149.84 0.38, 316.68 0.47 M316.93 -1.95 C316.45 6.24, 315.95 14.08, 318.14 25.41 M315.99 0.46 C317.45 6.28, 317.01 14.63, 317.64 25.62 M317.82 27.03 C207.19 28.34, 100.24 26.35, 0.75 26.88 M317.46 26.29 C200.75 26.11, 85.48 26.31, -0.23 26.03 M-0.9 26.93 C-1.17 17.85, -1.28 10.91, -0.37 -0.31 M0.77 26.83 C-0.73 17.97, 0.58 11.57, 0.74 0.82" stroke="#000000" stroke-width="1" fill="none"/></g><g transform="translate(387.7148992533836 72.39957304549802) rotate(0 122.5 9.5)"><text x="122.5" y="15" font-family="Cascadia, Segoe UI Emoji" font-size="16px" fill="#000000" text-anchor="middle" style="white-space: pre;" direction="ltr">Draft Design for FoodVilla</text></g><g stroke-linecap="round"><g transform="translate(647.90160828393 220.8625682885142) rotate(0 19.381905962337612 -0.2959081245197126)"><path d="M0 0 C12.39 -0.19, 24.79 -0.38, 38.76 -0.59 M0 0 C15.02 -0.23, 30.03 -0.46, 38.76 -0.59" stroke="#364fc7" stroke-width="1" fill="none"/></g></g><mask/><g stroke-linecap="round"><g transform="translate(718.9033375430465 219.93681638446301) rotate(0 49.702621785255644 -0.044937170291802886)"><path d="M0 0 C25.91 -0.02, 51.82 -0.05, 99.41 -0.09 M0 0 C20.88 -0.02, 41.75 -0.04, 99.41 -0.09" stroke="#364fc7" stroke-width="1" fill="none"/></g></g><mask/><g stroke-opacity="0.1" fill-opacity="0.1" transform="translate(933.8246034694613 664.0755195819739) rotate(0 14.5 9.5)"><text x="14.5" y="15" font-family="Cascadia, Segoe UI Emoji" font-size="16px" fill="#000000" text-anchor="middle" style="white-space: pre;" direction="ltr">@jx</text></g><g stroke-opacity="0.1" fill-opacity="0.1" transform="translate(474.54257154274717 356.3314199288722) rotate(0 14.5 9.5)"><text x="14.5" y="15" font-family="Cascadia, Segoe UI Emoji" font-size="16px" fill="#000000" text-anchor="middle" style="white-space: pre;" direction="ltr">@jx</text></g><g stroke-opacity="0.1" fill-opacity="0.1" transform="translate(59.029343316077075 660.4424307498704) rotate(0 14.5 9.5)"><text x="14.5" y="15" font-family="Cascadia, Segoe UI Emoji" font-size="16px" fill="#000000" text-anchor="middle" style="white-space: pre;" direction="ltr">@jx</text></g></svg>